<?xml version="1.0" encoding="UTF-8"?>
<svg xmlns="http://www.w3.org/2000/svg" version="1.1" viewBox="0 0 231 79.9">
  <defs>
    <style>
      .cls-1 {
        fill: #691c32;
      }

      .cls-2 {
        fill: #c8a977;
      }

      .cls-3 {
        fill: #fff;
      }

      .cls-4 {
        fill: #235b4e;
      }

      .cls-5 {
        fill: #9f2241;
      }

      .cls-6 {
        fill: #10312b;
      }
    </style>
  </defs>
  <!-- Generator: Adobe Illustrator 28.6.0, SVG Export Plug-In . SVG Version: 1.2.0 Build 709)  -->
  <g>
    <g id="Capa_1">
      <g>
        <g>
          <polygon class="cls-4" points="5.7 28.8 5.7 40.4 5.7 52.1 5.7 63.7 17.3 63.7 17.3 52.1 17.3 40.4 17.3 28.8 5.7 28.8"/>
          <rect class="cls-5" x="40.6" y="28.8" width="11.6" height="34.9"/>
          <rect class="cls-6" x="5.7" y="17.2" width="11.6" height="11.6"/>
          <rect class="cls-1" x="17.3" y="17.2" width="34.9" height="11.6"/>
          <path class="cls-2" d="M15.8,43.7h-3.2L2.7,25.6h3.2l9.9,18.1ZM43.2,52.8l3.6,6.5h3.2l-3.6-6.5h-3.2ZM52.1,51.6h-3.2l2.8,5h3.2l-2.8-5ZM24.9,31.1l15.5,28.2h3.2l-15.5-28.2h-3.2ZM17.3,28.8l16.7,30.5h3.2l-16.8-30.5h-3.1ZM14.1,28.8l-1.8-3.2h-3.2l1.8,3.2,14.3,26.2h3.2l-14.3-26.2Z"/>
        </g>
        <g>
          <g>
            <path class="cls-3" d="M70.6,55.8h-1.9l-.4.9h-1l1.9-4.2h1l1.9,4.2h-1l-.5-.9ZM70.3,55.1l-.7-1.6-.6,1.6h1.3Z"/>
            <path class="cls-3" d="M75.5,54.6h.9v1.7c-.2.2-.5.3-.8.4-.3,0-.6,0-.9,0s-.8,0-1.2-.3c-.3-.2-.6-.4-.8-.8-.2-.3-.3-.7-.3-1.1s0-.8.3-1.1c.2-.3.5-.6.8-.8.4-.2.7-.3,1.2-.3s.7,0,1,.2c.3,0,.6.3.8.5l-.6.6c-.3-.3-.7-.5-1.1-.5s-.5,0-.7.2c-.2,0-.4.3-.5.5s-.2.4-.2.7,0,.5.2.7.3.4.5.5.4.2.7.2.5,0,.8-.2v-1.2h-.1Z"/>
            <path class="cls-3" d="M80.8,55.9v.8h-3.2v-4.2h3.2v.8h-2.2v.9h1.9v.8h-1.9v1h2.2Z"/>
            <path class="cls-3" d="M85.8,52.5v4.2h-.8l-2.1-2.5v2.5h-1v-4.2h.8l2.1,2.5v-2.5h1Z"/>
            <path class="cls-3" d="M87.9,56.5c-.3-.2-.6-.4-.8-.8-.2-.3-.3-.7-.3-1.1s0-.8.3-1.1c.2-.3.5-.6.8-.8s.7-.3,1.2-.3.7,0,1,.2c.3,0,.5.3.7.6l-.6.6c-.3-.3-.6-.5-1.1-.5s-.5,0-.7.2c-.2,0-.4.3-.5.5s-.2.4-.2.7,0,.5.2.7.3.4.5.5.4.2.7.2.8-.2,1.1-.5l.6.6c-.2.2-.4.4-.7.6-.3,0-.6.2-1,.2-.5-.2-.9-.3-1.2-.5Z"/>
            <path class="cls-3" d="M91.7,52.5h1v4.2h-1v-4.2Z"/>
            <path class="cls-3" d="M96.8,55.8h-1.9l-.4.9h-1l1.9-4.2h1l1.9,4.2h-1l-.5-.9ZM96.5,55.1l-.7-1.6-.7,1.6h1.4Z"/>
            <path class="cls-3" d="M104.7,52.5v4.2h-.8l-2.1-2.5v2.5h-1v-4.2h.8l2.1,2.5v-2.5h1Z"/>
            <path class="cls-3" d="M108.8,55.8h-1.9l-.4.9h-1l1.9-4.2h1l1.9,4.2h-1l-.5-.9ZM108.5,55.1l-.7-1.6-.7,1.6h1.4Z"/>
            <path class="cls-3" d="M111.7,56.5c-.3-.2-.6-.4-.8-.8-.2-.3-.3-.7-.3-1.1s0-.8.3-1.1c.2-.3.5-.6.8-.8s.7-.3,1.2-.3.7,0,1,.2c.3,0,.5.3.7.6l-.6.6c-.3-.3-.6-.5-1.1-.5s-.5,0-.7.2c-.2,0-.4.3-.5.5s-.2.4-.2.7,0,.5.2.7.3.4.5.5.4.2.7.2.8-.2,1.1-.5l.6.6c-.2.2-.4.4-.7.6-.3,0-.6.2-1,.2-.5-.2-.9-.3-1.2-.5Z"/>
            <path class="cls-3" d="M115.5,52.5h1v4.2h-1v-4.2Z"/>
            <path class="cls-3" d="M118.7,56.5c-.3-.2-.6-.4-.8-.8-.2-.3-.3-.7-.3-1.1s0-.8.3-1.1c.2-.3.5-.6.8-.8s.7-.3,1.2-.3.8,0,1.2.3c.3.2.6.4.8.8.2.3.3.7.3,1.1s0,.8-.3,1.1c-.2.3-.5.6-.8.8s-.7.3-1.2.3-.9,0-1.2-.3ZM120.5,55.8c.2,0,.4-.3.5-.5s.2-.4.2-.7,0-.5-.2-.7-.3-.4-.5-.5-.4-.2-.7-.2-.5,0-.7.2c-.2,0-.4.3-.5.5s-.2.4-.2.7,0,.5.2.7.3.4.5.5.4.2.7.2.5,0,.7-.2Z"/>
            <path class="cls-3" d="M127,52.5v4.2h-.8l-2.1-2.5v2.5h-1v-4.2h.8l2.1,2.5v-2.5h1Z"/>
            <path class="cls-3" d="M131.1,55.8h-1.9l-.4.9h-1l1.9-4.2h1l1.9,4.2h-1l-.5-.9ZM130.7,55.1l-.7-1.6-.7,1.6h1.4Z"/>
            <path class="cls-3" d="M133.2,52.5h1v3.4h2.1v.8h-3.1v-4.2Z"/>
            <path class="cls-3" d="M139.1,52.5h1.9c.5,0,.9,0,1.2.3s.6.4.8.7.3.7.3,1.1-.1.8-.3,1.1-.5.6-.8.7c-.3.2-.8.3-1.2.3h-1.9v-4.2ZM140.9,55.9c.4,0,.8,0,1-.4.2-.2.4-.6.4-.9s-.1-.7-.4-.9c-.2-.2-.6-.4-1-.4h-.9v2.6s.9,0,.9,0Z"/>
            <path class="cls-3" d="M147.6,55.9v.8h-3.2v-4.2h3.2v.8h-2.2v.9h1.9v.8h-1.9v1h2.2Z"/>
            <path class="cls-3" d="M153.4,55.8h-1.9l-.4.9h-1l1.9-4.2h1l1.9,4.2h-1l-.5-.9ZM153.1,55.1l-.7-1.6-.7,1.6h1.4Z"/>
            <path class="cls-3" d="M155.5,52.5h1.9c.5,0,.9,0,1.2.3s.6.4.8.7.3.7.3,1.1-.1.8-.3,1.1-.5.6-.8.7c-.3.2-.8.3-1.2.3h-1.9v-4.2ZM157.4,55.9c.4,0,.8,0,1-.4.2-.2.4-.6.4-.9s-.1-.7-.4-.9c-.2-.2-.6-.4-1-.4h-.9v2.6s.9,0,.9,0Z"/>
            <path class="cls-3" d="M161.3,56.3c-.3-.3-.5-.8-.5-1.4v-2.3h1v2.3c0,.8.3,1.1.9,1.1s.5,0,.7-.3.2-.5.2-.9v-2.3h1v2.3c0,.6-.2,1.1-.5,1.4-.3.3-.8.5-1.4.5-.6.1-1.1,0-1.4-.4Z"/>
            <path class="cls-3" d="M168.5,55.8h-1.9l-.4.9h-1l1.9-4.2h1l1.9,4.2h-1l-.5-.9ZM168.2,55.1l-.7-1.6-.7,1.6h1.4Z"/>
            <path class="cls-3" d="M174.5,52.5v4.2h-.8l-2.1-2.5v2.5h-1v-4.2h.8l2.1,2.5v-2.5h1Z"/>
            <path class="cls-3" d="M178.5,55.8h-1.9l-.4.9h-1l1.9-4.2h1l1.9,4.2h-1l-.5-.9ZM178.2,55.1l-.7-1.6-.7,1.6h1.4Z"/>
            <path class="cls-3" d="M181,56.7c-.3,0-.6-.2-.7-.4l.3-.7c.2,0,.4.2.6.3.2,0,.5,0,.7,0,.3,0,.5,0,.6,0s.2-.2.2-.3,0-.2-.1-.2c-.1,0-.2,0-.3-.2-.1,0-.3,0-.5,0-.3,0-.6-.2-.8-.2-.2,0-.4-.2-.5-.4s-.2-.4-.2-.7.1-.5.2-.7c.1-.2.3-.4.6-.5s.6-.2,1-.2.5,0,.8,0,.5.2.7.3l-.3.7c-.4-.2-.8-.3-1.2-.3s-.5,0-.6,0-.2.2-.2.3.1.3.2.3c.1,0,.4,0,.7.2.3,0,.6.2.8.2.2,0,.4.2.5.4s.2.4.2.7-.1.5-.2.7c-.1.2-.3.4-.6.5s-.6.2-1,.2c-.2,0-.5,0-.9,0Z"/>
            <path class="cls-3" d="M186.7,52.5h1.9c.5,0,.9,0,1.2.3s.6.4.8.7.3.7.3,1.1-.1.8-.3,1.1-.5.6-.8.7c-.3.2-.8.3-1.2.3h-1.9v-4.2ZM188.6,55.9c.4,0,.8,0,1-.4.2-.2.4-.6.4-.9s-.1-.7-.4-.9c-.2-.2-.6-.4-1-.4h-.9v2.6s.9,0,.9,0Z"/>
            <path class="cls-3" d="M195.2,55.9v.8h-3.2v-4.2h3.2v.8h-2.2v.9h1.9v.8h-1.9v1h2.2Z"/>
            <path class="cls-3" d="M202.1,56.7v-2.5l-1.2,2.1h-.4l-1.2-2v2.5h-.9v-4.2h.8l1.6,2.6,1.5-2.6h.8v4.2h-1Z"/>
            <path class="cls-3" d="M207.6,55.9v.8h-3.2v-4.2h3.2v.8h-2.2v.9h1.9v.8h-1.9v1h2.2ZM206.2,51.3h1l-1.1.9h-.7l.8-.9Z"/>
            <path class="cls-3" d="M211.3,56.7l-1-1.5-1,1.5h-1.1l1.6-2.1-1.5-2.1h1.1l1,1.4.9-1.4h1l-1.5,2,1.6,2.2s-1.1,0-1.1,0Z"/>
            <path class="cls-3" d="M213.1,52.5h1v4.2h-1v-4.2Z"/>
            <path class="cls-3" d="M216.2,56.5c-.3-.2-.6-.4-.8-.8-.2-.3-.3-.7-.3-1.1s.1-.8.3-1.1.5-.6.8-.8.7-.3,1.2-.3.7,0,1,.2c.3,0,.5.3.7.6l-.6.6c-.3-.3-.6-.5-1.1-.5s-.5,0-.7.2c-.2,0-.4.3-.5.5s-.2.4-.2.7.1.5.2.7c.1.2.3.4.5.5s.4.2.7.2.8-.2,1.1-.5l.6.6c-.2.2-.4.4-.7.6-.3,0-.6.2-1,.2-.5-.2-.9-.3-1.2-.5Z"/>
            <path class="cls-3" d="M220.8,56.5c-.3-.2-.6-.4-.8-.8-.2-.3-.3-.7-.3-1.1s.1-.8.3-1.1.5-.6.8-.8.7-.3,1.2-.3.8,0,1.2.3c.3.2.6.4.8.8.2.3.3.7.3,1.1s-.1.8-.3,1.1-.5.6-.8.8-.7.3-1.2.3-.9,0-1.2-.3ZM222.6,55.8c.2,0,.4-.3.5-.5s.2-.4.2-.7-.1-.5-.2-.7c-.1-.2-.3-.4-.5-.5s-.4-.2-.7-.2-.5,0-.7.2c-.2,0-.4.3-.5.5s-.2.4-.2.7.1.5.2.7c.1.2.3.4.5.5s.4.2.7.2.5,0,.7-.2Z"/>
          </g>
          <g>
            <path class="cls-3" d="M75.5,44.2h-7.9l-.3-1.4,2.3-.7c2-4.7,3.9-10.1,5.8-15.2l.8-2.8c1.4-.2,3.6-.3,4.9-.3.2.9.6,1.9,1.1,3.2,1.9,5.3,4.2,11.3,5.7,15.1l2.4.7-.3,1.4h-8.8l-.3-1.4,2.9-.7c-.5-1.3-1-2.8-1.6-4.5h-7.8c-.5,1.6-1,3.1-1.4,4.5l2.9.7-.4,1.4ZM81.4,35.5c-1-2.8-2.1-5.9-3.3-9.1-1,2.9-2.1,6-3.1,9h6.4Z"/>
            <path class="cls-3" d="M94.4,42c0-.5.2-4,.2-5.4v-5.2c0-1.8,0-4.7-.2-5-.3-.3-1.6-.7-2.5-1l.3-1.4h4c1,0,4.1-.2,5.5-.2,8,0,10.8,4.8,10.8,10.2s-4.5,10.4-10,10.4-4.3-.2-6.1-.2h-4.2l-.3-1.4,2.5-.8ZM98.5,41.8c.4.4,4.1.9,6.1,0,2.4-1.3,3.7-4,3.8-7.9,0-3.3-1.3-5.8-2.6-6.9-1.2-.7-2.7-1.1-4.5-1.1s-1.9.1-2.8.2c0,.6-.2,3.9-.2,5.4v5.2c0,1.7,0,4.5.2,5"/>
            <path class="cls-3" d="M125.4,44.7c-5.7,0-8.4-3.3-8.4-9.9v-3.2c0-1.7,0-4.8-.3-5.1-.3-.4-1.6-.7-2.5-1l.3-1.4h8.8l.3,1.4-2.6.8c0,.5-.2,4-.2,5.4v3.3c0,4.7,1.4,7.2,5.4,7.2s3.6-.8,4.3-1.8c.6-1.9.7-4.5.7-7.8s0-5.7-.2-6.2c-.3-.3-1.8-.6-2.8-.9l.3-1.4h7.9l.3,1.4-2.7.8c-.1,2-.1,4.7-.1,9.5-.1,5.9-3.4,8.9-8.5,8.9"/>
            <path class="cls-3" d="M142.9,44.2h-7.9l-.3-1.4,2.3-.8c2-4.7,3.9-10.1,5.8-15.2l.8-2.8c1.4-.2,3.6-.3,4.9-.3.2.9.6,1.9,1.1,3.2,1.9,5.3,4.2,11.3,5.7,15.1l2.4.7-.3,1.4h-8.8l-.3-1.4,2.9-.7c-.5-1.3-1-2.8-1.6-4.5h-7.8c-.5,1.6-1,3.1-1.4,4.5l2.9.7-.4,1.5ZM148.8,35.5c-1-2.8-2.1-5.9-3.3-9.1-1,2.9-2.1,6-3.1,9h6.4Z"/>
            <path class="cls-3" d="M175.6,44.3l-2.6-3.5c-2.7-3.5-6-7.7-8.6-11,.1,5.2.2,11.3.5,11.9.3.4,2,.7,3.3,1l-.3,1.4h-8.3l-.3-1.4,2.6-.7c.1-1,.2-3.6.2-7.8s-.1-7.3-.3-7.7c-.5-.3-1.6-.8-2.5-1l.3-1.4c1.8,0,3.9-.1,5.6-.1,2,3.3,6.9,9.4,11,14.5,0-5.9-.2-11.5-.5-12-.2-.4-1.9-.7-3-1l.3-1.4h8.2l.3,1.4-2.6.8c-.2,2.3-.4,9.1-.4,17.8l-2.9.2Z"/>
            <path class="cls-3" d="M189.5,44.2h-7.9l-.3-1.4,2.3-.7c2-4.7,3.9-10.1,5.8-15.2l.8-2.8c1.4-.2,3.6-.3,4.9-.3.2.9.6,1.9,1.1,3.2,1.9,5.3,4.2,11.3,5.7,15.1l2.4.7-.3,1.4h-8.8l-.3-1.4,2.9-.7c-.5-1.3-1-2.8-1.6-4.5h-7.8c-.5,1.6-1,3.1-1.4,4.5l2.9.7-.4,1.4ZM195.4,35.5c-1-2.8-2.1-5.9-3.3-9.1-1,2.9-2.1,6-3.1,9h6.4Z"/>
            <path class="cls-3" d="M220.7,25.1l.4.8c-.2,1.3-.6,3.4-.8,4.4-.5,0-1.8,0-2.4-.1-.2-1.6-.3-2.7-.5-3.5-.7-.5-1.8-.8-3.2-.8s-2.3.3-3,.8c-.3.5-.6,1.2-.6,2.1,0,4.8,10.9,3.5,10.9,10.2s-2.9,5.7-7.6,5.7-5.7-1-7.1-1.8v-.3c-.1-1.3-.1-3,0-4.3.5,0,2,0,2.5,0,.3,1.4.5,2.3.7,3.2.8.5,2.5,1,3.9,1s2.2-.2,3-.6c.4-.5.7-1.2.7-2.2,0-4.5-10.7-3.1-10.7-10s3.5-6,7.8-6c2.4,0,4.5.6,6,1.5"/>
          </g>
        </g>
      </g>
    </g>
  </g>
</svg>