<svg xmlns="http://www.w3.org/2000/svg" xmlns:xlink="http://www.w3.org/1999/xlink" id="Capa_1" x="0px" y="0px" viewBox="0 0 231 79.9" style="enable-background:new 0 0 231 79.9;" xml:space="preserve"><style type="text/css">	.st0{fill:#235B4E;}	.st1{fill:#9F2241;}	.st2{fill:#10312B;}	.st3{fill:#691C32;}	.st4{fill:#C8A977;}	.st5{fill:#98989A;}	.st6{fill:#6F7271;}</style><g>	<g>		<polygon class="st0" points="5.7,28.8 5.7,40.4 5.7,52.1 5.7,63.7 17.3,63.7 17.3,52.1 17.3,40.4 17.3,28.8   "></polygon>		<rect x="40.6" y="28.8" class="st1" width="11.6" height="34.9"></rect>		<rect x="5.7" y="17.2" class="st2" width="11.6" height="11.6"></rect>		<rect x="17.3" y="17.2" class="st3" width="34.9" height="11.6"></rect>		<path class="st4" d="M15.8,43.7h-3.2L2.7,25.6h3.2L15.8,43.7z M43.2,52.8l3.6,6.5h3.2l-3.6-6.5H43.2z M52.1,51.6h-3.2l2.8,5h3.2   L52.1,51.6z M24.9,31.1l15.5,28.2h3.2L28.1,31.1H24.9z M17.3,28.8L34,59.3h3.2L20.4,28.8H17.3z M14.1,28.8l-1.8-3.2H9.1l1.8,3.2   L25.2,55h3.2L14.1,28.8z"></path>	</g>	<g>		<g>			<path class="st5" d="M70.6,55.8h-1.9l-0.4,0.9h-1l1.9-4.2h1l1.9,4.2h-1L70.6,55.8z M70.3,55.1l-0.7-1.6L69,55.1H70.3z"></path>			<path class="st5" d="M75.5,54.6h0.9v1.7c-0.2,0.2-0.5,0.3-0.8,0.4c-0.3,0.1-0.6,0.1-0.9,0.1c-0.4,0-0.8-0.1-1.2-0.3    c-0.3-0.2-0.6-0.4-0.8-0.8c-0.2-0.3-0.3-0.7-0.3-1.1c0-0.4,0.1-0.8,0.3-1.1c0.2-0.3,0.5-0.6,0.8-0.8c0.4-0.2,0.7-0.3,1.2-0.3    c0.4,0,0.7,0.1,1,0.2c0.3,0.1,0.6,0.3,0.8,0.5l-0.6,0.6c-0.3-0.3-0.7-0.5-1.1-0.5c-0.3,0-0.5,0.1-0.7,0.2    c-0.2,0.1-0.4,0.3-0.5,0.5c-0.1,0.2-0.2,0.4-0.2,0.7c0,0.3,0.1,0.5,0.2,0.7c0.1,0.2,0.3,0.4,0.5,0.5c0.2,0.1,0.4,0.2,0.7,0.2    c0.3,0,0.5-0.1,0.8-0.2V54.6z"></path>			<path class="st5" d="M80.8,55.9v0.8h-3.2v-4.2h3.2v0.8h-2.2v0.9h1.9V55h-1.9v1H80.8z"></path>			<path class="st5" d="M85.8,52.5v4.2H85l-2.1-2.5v2.5h-1v-4.2h0.8l2.1,2.5v-2.5H85.8z"></path>			<path class="st5" d="M87.9,56.5c-0.3-0.2-0.6-0.4-0.8-0.8c-0.2-0.3-0.3-0.7-0.3-1.1c0-0.4,0.1-0.8,0.3-1.1    c0.2-0.3,0.5-0.6,0.8-0.8c0.3-0.2,0.7-0.3,1.2-0.3c0.4,0,0.7,0.1,1,0.2c0.3,0.1,0.5,0.3,0.7,0.6l-0.6,0.6    c-0.3-0.3-0.6-0.5-1.1-0.5c-0.3,0-0.5,0.1-0.7,0.2c-0.2,0.1-0.4,0.3-0.5,0.5c-0.1,0.2-0.2,0.4-0.2,0.7c0,0.3,0.1,0.5,0.2,0.7    c0.1,0.2,0.3,0.4,0.5,0.5c0.2,0.1,0.4,0.2,0.7,0.2c0.4,0,0.8-0.2,1.1-0.5l0.6,0.6c-0.2,0.2-0.4,0.4-0.7,0.6    c-0.3,0.1-0.6,0.2-1,0.2C88.6,56.8,88.2,56.7,87.9,56.5z"></path>			<path class="st5" d="M91.7,52.5h1v4.2h-1V52.5z"></path>			<path class="st5" d="M96.8,55.8h-1.9l-0.4,0.9h-1l1.9-4.2h1l1.9,4.2h-1L96.8,55.8z M96.5,55.1l-0.7-1.6l-0.7,1.6H96.5z"></path>			<path class="st5" d="M104.7,52.5v4.2h-0.8l-2.1-2.5v2.5h-1v-4.2h0.8l2.1,2.5v-2.5H104.7z"></path>			<path class="st5" d="M108.8,55.8h-1.9l-0.4,0.9h-1l1.9-4.2h1l1.9,4.2h-1L108.8,55.8z M108.5,55.1l-0.7-1.6l-0.7,1.6H108.5z"></path>			<path class="st5" d="M111.7,56.5c-0.3-0.2-0.6-0.4-0.8-0.8c-0.2-0.3-0.3-0.7-0.3-1.1c0-0.4,0.1-0.8,0.3-1.1    c0.2-0.3,0.5-0.6,0.8-0.8c0.3-0.2,0.7-0.3,1.2-0.3c0.4,0,0.7,0.1,1,0.2c0.3,0.1,0.5,0.3,0.7,0.6l-0.6,0.6    c-0.3-0.3-0.6-0.5-1.1-0.5c-0.3,0-0.5,0.1-0.7,0.2c-0.2,0.1-0.4,0.3-0.5,0.5c-0.1,0.2-0.2,0.4-0.2,0.7c0,0.3,0.1,0.5,0.2,0.7    c0.1,0.2,0.3,0.4,0.5,0.5c0.2,0.1,0.4,0.2,0.7,0.2c0.4,0,0.8-0.2,1.1-0.5l0.6,0.6c-0.2,0.2-0.4,0.4-0.7,0.6    c-0.3,0.1-0.6,0.2-1,0.2C112.4,56.8,112,56.7,111.7,56.5z"></path>			<path class="st5" d="M115.5,52.5h1v4.2h-1V52.5z"></path>			<path class="st5" d="M118.7,56.5c-0.3-0.2-0.6-0.4-0.8-0.8c-0.2-0.3-0.3-0.7-0.3-1.1c0-0.4,0.1-0.8,0.3-1.1    c0.2-0.3,0.5-0.6,0.8-0.8c0.3-0.2,0.7-0.3,1.2-0.3c0.4,0,0.8,0.1,1.2,0.3c0.3,0.2,0.6,0.4,0.8,0.8c0.2,0.3,0.3,0.7,0.3,1.1    c0,0.4-0.1,0.8-0.3,1.1c-0.2,0.3-0.5,0.6-0.8,0.8c-0.3,0.2-0.7,0.3-1.2,0.3C119.4,56.8,119,56.7,118.7,56.5z M120.5,55.8    c0.2-0.1,0.4-0.3,0.5-0.5c0.1-0.2,0.2-0.4,0.2-0.7c0-0.3-0.1-0.5-0.2-0.7c-0.1-0.2-0.3-0.4-0.5-0.5c-0.2-0.1-0.4-0.2-0.7-0.2    c-0.2,0-0.5,0.1-0.7,0.2c-0.2,0.1-0.4,0.3-0.5,0.5c-0.1,0.2-0.2,0.4-0.2,0.7c0,0.3,0.1,0.5,0.2,0.7c0.1,0.2,0.3,0.4,0.5,0.5    c0.2,0.1,0.4,0.2,0.7,0.2C120.1,56,120.3,55.9,120.5,55.8z"></path>			<path class="st5" d="M127,52.5v4.2h-0.8l-2.1-2.5v2.5h-1v-4.2h0.8l2.1,2.5v-2.5H127z"></path>			<path class="st5" d="M131.1,55.8h-1.9l-0.4,0.9h-1l1.9-4.2h1l1.9,4.2h-1L131.1,55.8z M130.7,55.1l-0.7-1.6l-0.7,1.6H130.7z"></path>			<path class="st5" d="M133.2,52.5h1v3.4h2.1v0.8h-3.1V52.5z"></path>			<path class="st5" d="M139.1,52.5h1.9c0.5,0,0.9,0.1,1.2,0.3c0.3,0.2,0.6,0.4,0.8,0.7c0.2,0.3,0.3,0.7,0.3,1.1    c0,0.4-0.1,0.8-0.3,1.1c-0.2,0.3-0.5,0.6-0.8,0.7c-0.3,0.2-0.8,0.3-1.2,0.3h-1.9V52.5z M140.9,55.9c0.4,0,0.8-0.1,1-0.4    c0.2-0.2,0.4-0.6,0.4-0.9c0-0.4-0.1-0.7-0.4-0.9c-0.2-0.2-0.6-0.4-1-0.4h-0.9v2.6H140.9z"></path>			<path class="st5" d="M147.6,55.9v0.8h-3.2v-4.2h3.2v0.8h-2.2v0.9h1.9V55h-1.9v1H147.6z"></path>			<path class="st5" d="M153.4,55.8h-1.9l-0.4,0.9h-1l1.9-4.2h1l1.9,4.2h-1L153.4,55.8z M153.1,55.1l-0.7-1.6l-0.7,1.6H153.1z"></path>			<path class="st5" d="M155.5,52.5h1.9c0.5,0,0.9,0.1,1.2,0.3c0.3,0.2,0.6,0.4,0.8,0.7c0.2,0.3,0.3,0.7,0.3,1.1    c0,0.4-0.1,0.8-0.3,1.1c-0.2,0.3-0.5,0.6-0.8,0.7c-0.3,0.2-0.8,0.3-1.2,0.3h-1.9V52.5z M157.4,55.9c0.4,0,0.8-0.1,1-0.4    c0.2-0.2,0.4-0.6,0.4-0.9c0-0.4-0.1-0.7-0.4-0.9c-0.2-0.2-0.6-0.4-1-0.4h-0.9v2.6H157.4z"></path>			<path class="st5" d="M161.3,56.3c-0.3-0.3-0.5-0.8-0.5-1.4v-2.3h1v2.3c0,0.8,0.3,1.1,0.9,1.1c0.3,0,0.5-0.1,0.7-0.3    c0.2-0.2,0.2-0.5,0.2-0.9v-2.3h1v2.3c0,0.6-0.2,1.1-0.5,1.4c-0.3,0.3-0.8,0.5-1.4,0.5C162.1,56.8,161.6,56.6,161.3,56.3z"></path>			<path class="st5" d="M168.5,55.8h-1.9l-0.4,0.9h-1l1.9-4.2h1l1.9,4.2h-1L168.5,55.8z M168.2,55.1l-0.7-1.6l-0.7,1.6H168.2z"></path>			<path class="st5" d="M174.5,52.5v4.2h-0.8l-2.1-2.5v2.5h-1v-4.2h0.8l2.1,2.5v-2.5H174.5z"></path>			<path class="st5" d="M178.5,55.8h-1.9l-0.4,0.9h-1l1.9-4.2h1l1.9,4.2h-1L178.5,55.8z M178.2,55.1l-0.7-1.6l-0.7,1.6H178.2z"></path>			<path class="st5" d="M181,56.7c-0.3-0.1-0.6-0.2-0.7-0.4l0.3-0.7c0.2,0.1,0.4,0.2,0.6,0.3c0.2,0.1,0.5,0.1,0.7,0.1    c0.3,0,0.5,0,0.6-0.1c0.1-0.1,0.2-0.2,0.2-0.3c0-0.1,0-0.2-0.1-0.2c-0.1-0.1-0.2-0.1-0.3-0.2c-0.1,0-0.3-0.1-0.5-0.1    c-0.3-0.1-0.6-0.2-0.8-0.2c-0.2-0.1-0.4-0.2-0.5-0.4c-0.1-0.2-0.2-0.4-0.2-0.7c0-0.2,0.1-0.5,0.2-0.7c0.1-0.2,0.3-0.4,0.6-0.5    c0.3-0.1,0.6-0.2,1-0.2c0.3,0,0.5,0,0.8,0.1c0.3,0.1,0.5,0.2,0.7,0.3l-0.3,0.7c-0.4-0.2-0.8-0.3-1.2-0.3c-0.3,0-0.5,0-0.6,0.1    c-0.1,0.1-0.2,0.2-0.2,0.3c0,0.1,0.1,0.3,0.2,0.3c0.1,0.1,0.4,0.1,0.7,0.2c0.3,0.1,0.6,0.2,0.8,0.2c0.2,0.1,0.4,0.2,0.5,0.4    c0.1,0.2,0.2,0.4,0.2,0.7c0,0.2-0.1,0.5-0.2,0.7c-0.1,0.2-0.3,0.4-0.6,0.5c-0.3,0.1-0.6,0.2-1,0.2    C181.7,56.8,181.4,56.7,181,56.7z"></path>			<path class="st5" d="M186.7,52.5h1.9c0.5,0,0.9,0.1,1.2,0.3c0.3,0.2,0.6,0.4,0.8,0.7c0.2,0.3,0.3,0.7,0.3,1.1    c0,0.4-0.1,0.8-0.3,1.1c-0.2,0.3-0.5,0.6-0.8,0.7c-0.3,0.2-0.8,0.3-1.2,0.3h-1.9V52.5z M188.6,55.9c0.4,0,0.8-0.1,1-0.4    c0.2-0.2,0.4-0.6,0.4-0.9c0-0.4-0.1-0.7-0.4-0.9c-0.2-0.2-0.6-0.4-1-0.4h-0.9v2.6H188.6z"></path>			<path class="st5" d="M195.2,55.9v0.8H192v-4.2h3.2v0.8H193v0.9h1.9V55H193v1H195.2z"></path>			<path class="st5" d="M202.1,56.7l0-2.5l-1.2,2.1h-0.4l-1.2-2v2.5h-0.9v-4.2h0.8l1.6,2.6l1.5-2.6h0.8l0,4.2H202.1z"></path>			<path class="st5" d="M207.6,55.9v0.8h-3.2v-4.2h3.2v0.8h-2.2v0.9h1.9V55h-1.9v1H207.6z M206.2,51.3h1l-1.1,0.9h-0.7L206.2,51.3z"></path>			<path class="st5" d="M211.3,56.7l-1-1.5l-1,1.5h-1.1l1.6-2.1l-1.5-2.1h1.1l1,1.4l0.9-1.4h1l-1.5,2l1.6,2.2H211.3z"></path>			<path class="st5" d="M213.1,52.5h1v4.2h-1V52.5z"></path>			<path class="st5" d="M216.2,56.5c-0.3-0.2-0.6-0.4-0.8-0.8c-0.2-0.3-0.3-0.7-0.3-1.1c0-0.4,0.1-0.8,0.3-1.1    c0.2-0.3,0.5-0.6,0.8-0.8c0.3-0.2,0.7-0.3,1.2-0.3c0.4,0,0.7,0.1,1,0.2c0.3,0.1,0.5,0.3,0.7,0.6l-0.6,0.6    c-0.3-0.3-0.6-0.5-1.1-0.5c-0.3,0-0.5,0.1-0.7,0.2c-0.2,0.1-0.4,0.3-0.5,0.5c-0.1,0.2-0.2,0.4-0.2,0.7c0,0.3,0.1,0.5,0.2,0.7    c0.1,0.2,0.3,0.4,0.5,0.5c0.2,0.1,0.4,0.2,0.7,0.2c0.4,0,0.8-0.2,1.1-0.5l0.6,0.6c-0.2,0.2-0.4,0.4-0.7,0.6    c-0.3,0.1-0.6,0.2-1,0.2C216.9,56.8,216.5,56.7,216.2,56.5z"></path>			<path class="st5" d="M220.8,56.5c-0.3-0.2-0.6-0.4-0.8-0.8c-0.2-0.3-0.3-0.7-0.3-1.1c0-0.4,0.1-0.8,0.3-1.1    c0.2-0.3,0.5-0.6,0.8-0.8c0.3-0.2,0.7-0.3,1.2-0.3c0.4,0,0.8,0.1,1.2,0.3c0.3,0.2,0.6,0.4,0.8,0.8c0.2,0.3,0.3,0.7,0.3,1.1    c0,0.4-0.1,0.8-0.3,1.1c-0.2,0.3-0.5,0.6-0.8,0.8c-0.3,0.2-0.7,0.3-1.2,0.3C221.5,56.8,221.1,56.7,220.8,56.5z M222.6,55.8    c0.2-0.1,0.4-0.3,0.5-0.5c0.1-0.2,0.2-0.4,0.2-0.7c0-0.3-0.1-0.5-0.2-0.7c-0.1-0.2-0.3-0.4-0.5-0.5c-0.2-0.1-0.4-0.2-0.7-0.2    s-0.5,0.1-0.7,0.2c-0.2,0.1-0.4,0.3-0.5,0.5c-0.1,0.2-0.2,0.4-0.2,0.7c0,0.3,0.1,0.5,0.2,0.7c0.1,0.2,0.3,0.4,0.5,0.5    c0.2,0.1,0.4,0.2,0.7,0.2S222.4,55.9,222.6,55.8z"></path>		</g>		<g>			<path class="st6" d="M75.5,44.2h-7.9l-0.3-1.4l2.3-0.7c2-4.7,3.9-10.1,5.8-15.2l0.8-2.8c1.4-0.2,3.6-0.3,4.9-0.3    c0.2,0.9,0.6,1.9,1.1,3.2c1.9,5.3,4.2,11.3,5.7,15.1l2.4,0.7L90,44.2h-8.8l-0.3-1.4l2.9-0.7c-0.5-1.3-1-2.8-1.6-4.5l-7.8,0.1    c-0.5,1.5-1,3-1.4,4.4l2.9,0.7L75.5,44.2z M81.4,35.5c-1-2.8-2.1-5.9-3.3-9.1c-1,2.9-2.1,6-3.1,9L81.4,35.5z"></path>			<path class="st6" d="M94.4,42c0.1-0.5,0.2-4,0.2-5.4v-5.2c0-1.8,0-4.7-0.2-5c-0.3-0.3-1.6-0.7-2.5-1l0.3-1.4h4    c1,0,4.1-0.2,5.5-0.2c8,0,10.8,4.8,10.8,10.2c0,6.9-4.5,10.4-10,10.4c-1.9,0-4.3-0.2-6.1-0.2h-4.2l-0.3-1.4L94.4,42z M98.5,41.8    c0.4,0.4,4.1,0.9,6.1,0.1c2.4-1.3,3.7-4,3.8-7.9c0-3.3-1.3-5.8-2.6-6.9c-1.2-0.7-2.7-1.1-4.5-1.1c-1,0-1.9,0.1-2.8,0.2    c-0.1,0.6-0.2,3.9-0.2,5.4v5.2C98.3,38.5,98.3,41.3,98.5,41.8"></path>			<path class="st6" d="M125.4,44.7c-5.7,0-8.4-3.3-8.4-9.9v-3.2c0-1.7,0-4.8-0.3-5.1c-0.3-0.4-1.6-0.7-2.5-1l0.3-1.4h8.8l0.3,1.4    l-2.6,0.8c-0.1,0.5-0.2,4-0.2,5.4v3.3c0,4.7,1.4,7.2,5.4,7.2c2,0,3.6-0.8,4.3-1.8c0.6-1.9,0.7-4.5,0.7-7.8c0-2.7,0-5.7-0.2-6.2    c-0.3-0.3-1.8-0.6-2.8-0.9l0.3-1.4h7.9l0.3,1.4l-2.7,0.8c-0.1,2-0.1,4.7-0.1,9.5C133.8,41.7,130.5,44.7,125.4,44.7"></path>			<path class="st6" d="M142.9,44.2H135l-0.3-1.4L137,42c2-4.7,3.9-10.1,5.8-15.2l0.8-2.8c1.4-0.2,3.6-0.3,4.9-0.3    c0.2,0.9,0.6,1.9,1.1,3.2c1.9,5.3,4.2,11.3,5.7,15.1l2.4,0.7l-0.3,1.4h-8.8l-0.3-1.4l2.9-0.7c-0.5-1.3-1-2.8-1.6-4.5l-7.8,0.1    c-0.5,1.5-1,3-1.4,4.4l2.9,0.7L142.9,44.2z M148.8,35.5c-1-2.8-2.1-5.9-3.3-9.1c-1,2.9-2.1,6-3.1,9L148.8,35.5z"></path>			<path class="st6" d="M175.6,44.3l-2.6-3.5c-2.7-3.5-6-7.7-8.6-11c0.1,5.2,0.2,11.3,0.5,11.9c0.3,0.4,2,0.7,3.3,1l-0.3,1.4h-8.3    l-0.3-1.4l2.6-0.7c0.1-1,0.2-3.6,0.2-7.8c0-4.9-0.1-7.3-0.3-7.7c-0.5-0.3-1.6-0.8-2.5-1l0.3-1.4c1.8,0,3.9-0.1,5.6-0.1    c2,3.3,6.9,9.4,11,14.5c0-5.9-0.2-11.5-0.5-12c-0.2-0.4-1.9-0.7-3-1l0.3-1.4h8.2l0.3,1.4l-2.6,0.8c-0.2,2.3-0.4,9.1-0.4,17.8    L175.6,44.3z"></path>			<path class="st6" d="M189.5,44.2h-7.9l-0.3-1.4l2.3-0.7c2-4.7,3.9-10.1,5.8-15.2l0.8-2.8c1.4-0.2,3.6-0.3,4.9-0.3    c0.2,0.9,0.6,1.9,1.1,3.2c1.9,5.3,4.2,11.3,5.7,15.1l2.4,0.7l-0.3,1.4h-8.8l-0.3-1.4l2.9-0.7c-0.5-1.3-1-2.8-1.6-4.5l-7.8,0.1    c-0.5,1.5-1,3-1.4,4.4l2.9,0.7L189.5,44.2z M195.4,35.5c-1-2.8-2.1-5.9-3.3-9.1c-1,2.9-2.1,6-3.1,9L195.4,35.5z"></path>			<path class="st6" d="M220.7,25.1l0.4,0.8c-0.2,1.3-0.6,3.4-0.8,4.4c-0.5,0-1.8,0-2.4-0.1c-0.2-1.6-0.3-2.7-0.5-3.5    c-0.7-0.5-1.8-0.8-3.2-0.8c-1.2,0-2.3,0.3-3,0.8c-0.3,0.5-0.6,1.2-0.6,2.1c0,4.8,10.9,3.5,10.9,10.2c0,3.4-2.9,5.7-7.6,5.7    c-2.9,0-5.7-1-7.1-1.8l-0.1-0.3c0-1.3,0-3,0.1-4.3c0.5-0.1,2-0.1,2.5-0.1c0.3,1.4,0.5,2.3,0.7,3.2c0.8,0.5,2.5,1,3.9,1    c1.4,0,2.2-0.2,3-0.6c0.4-0.5,0.7-1.2,0.7-2.2c0-4.5-10.7-3.1-10.7-10c0-3.6,3.5-6,7.8-6C217.1,23.6,219.2,24.2,220.7,25.1"></path>		</g>	</g></g></svg>