<?xml version="1.0" encoding="utf-8"?>
<!-- Generator: Adobe Illustrator 24.2.1, SVG Export Plug-In . SVG Version: 6.00 Build 0)  -->
<svg version="1.1" id="Capa_1" xmlns="http://www.w3.org/2000/svg" xmlns:xlink="http://www.w3.org/1999/xlink" x="0px" y="0px"
	 viewBox="0 0 200 182.479" enable-background="new 0 0 200 182.479" xml:space="preserve">
<g>
	<path fill="#103554" d="M135.221,145.023l6.691-4.533c0,0,3.3,11.104,4.079,14.882c0.662,3.213,1.817,12.994,1.817,12.994
		l-8.416-6.642c0,0,0.147-4.779-0.092-6.348C139.015,153.504,135.221,145.023,135.221,145.023z"/>
	<path fill="#0F9BD8" d="M135.221,145.023c2.108-1.542,4.292-3.164,6.536-4.761l0.306-0.218l0.113,0.368l2.101,6.829
		c0.687,2.282,1.318,4.576,1.9,6.9c0.581,2.353,0.868,4.72,1.222,7.077c0.328,2.361,0.596,4.727,0.87,7.094l0.131,1.125l-0.88-0.706
		c-2.788-2.236-5.599-4.443-8.353-6.722l-0.146-0.121l0.008-0.176c0.065-1.449,0.111-2.906,0.108-4.355
		c-0.014-0.718,0.003-1.462-0.124-2.134c-0.143-0.678-0.381-1.376-0.615-2.06C137.432,150.423,136.315,147.726,135.221,145.023z
		 M135.221,145.023c1.261,2.631,2.465,5.286,3.557,8.001c0.265,0.685,0.532,1.359,0.721,2.101c0.165,0.759,0.168,1.485,0.21,2.22
		c0.055,1.466,0.06,2.926,0.046,4.39l-0.138-0.296c2.856,2.15,5.656,4.37,8.479,6.562l-0.75,0.419l-0.927-7.07
		c-0.325-2.351-0.588-4.723-1.126-7c-0.534-2.303-1.184-4.594-1.782-6.894l-1.865-6.887l0.419,0.15
		C139.85,142.143,137.574,143.543,135.221,145.023z"/>
</g>
<g>
	<g>
		<path fill="#E6F0F3" d="M149.687,164.722c0,0-1.226,10.421-5.401,10.329c-2.237-0.049-4.259-6.133-4.599-10.329
			c-0.262-3.241,1.252-7.193,1.252-7.193c0.701-0.461,1.634,1.605,3.34,1.53c1.738-0.076,2.581-1.864,3.467-1.53
			C147.747,157.529,150.791,160.337,149.687,164.722z"/>
		<path fill="#0F9BD8" d="M149.736,164.731c-0.388,2.6-0.767,5.239-1.844,7.734c-0.276,0.621-0.621,1.224-1.086,1.766
			c-0.457,0.538-1.081,1.024-1.854,1.196c-0.368,0.083-0.785,0.113-1.215-0.029c-0.406-0.139-0.715-0.39-0.975-0.651
			c-0.516-0.528-0.844-1.144-1.141-1.754c-0.577-1.232-0.929-2.52-1.272-3.8c-0.338-1.283-0.627-2.575-0.829-3.894
			c-0.417-2.685,0.113-5.396,0.972-7.942l0.041-0.122l0.142-0.106c0.284-0.212,0.733-0.161,0.922-0.05
			c0.223,0.101,0.368,0.214,0.51,0.321c0.276,0.215,0.508,0.42,0.747,0.595c0.477,0.351,0.95,0.562,1.428,0.528
			c0.512-0.028,0.989-0.267,1.481-0.615c0.248-0.173,0.492-0.374,0.796-0.577c0.156-0.099,0.322-0.205,0.554-0.279
			c0.222-0.08,0.542-0.094,0.804,0.016l0.11,0.046l0.05,0.053c0.513,0.538,0.871,1.097,1.178,1.715
			c0.295,0.616,0.507,1.266,0.632,1.926C150.16,162.128,150.037,163.475,149.736,164.731z M149.638,164.713
			c0.127-0.635,0.229-1.277,0.177-1.918c-0.026-0.64-0.181-1.266-0.388-1.859c-0.211-0.593-0.503-1.151-0.856-1.66
			c-0.336-0.507-0.752-1.006-1.157-1.385l0.16,0.099c-0.044-0.019-0.197,0.014-0.439,0.189c-0.228,0.16-0.476,0.375-0.749,0.579
			c-0.532,0.417-1.251,0.795-2.038,0.831c-0.829,0.064-1.587-0.348-2.112-0.78c-0.272-0.216-0.516-0.446-0.741-0.634
			c-0.11-0.092-0.223-0.176-0.294-0.209c-0.095-0.036-0.009-0.011,0.002-0.038l0.183-0.228c-0.448,1.189-0.832,2.448-1.096,3.709
			c-0.277,1.266-0.436,2.546-0.328,3.843c0.197,2.594,0.921,5.216,2.256,7.424c0.668,1.039,1.522,2.228,2.544,1.875
			c1.075-0.217,1.896-1.315,2.533-2.391C148.537,169.907,149.282,167.314,149.638,164.713z"/>
	</g>
	<path opacity="0.1" fill="#103554" d="M148.978,165.757c0,0-0.971,9.492-4.616,9.385c-2.19-0.065-4.094-5.659-4.576-9.489
		c-0.327-2.596,0.779-6.017,0.779-6.017c0.65-0.427,1.844,1.487,3.425,1.418c1.611-0.071,2.392-1.727,3.213-1.418
		C147.204,159.636,150.001,161.693,148.978,165.757z"/>
</g>
<g>
	<path fill="#103554" d="M66.808,145.023l-6.691-4.533c0,0-3.3,11.104-4.079,14.882c-0.662,3.213-1.817,12.994-1.817,12.994
		l8.416-6.642c0,0-0.147-4.779,0.092-6.348C63.014,153.504,66.808,145.023,66.808,145.023z"/>
	<path fill="#0F9BD8" d="M66.808,145.023c-2.353-1.48-4.629-2.88-6.846-4.304l0.419-0.15l-1.865,6.887
		c-0.597,2.3-1.248,4.591-1.782,6.894c-0.537,2.277-0.8,4.65-1.126,7l-0.927,7.07l-0.75-0.419c2.823-2.192,5.623-4.413,8.479-6.562
		l-0.138,0.296c-0.014-1.465-0.009-2.924,0.046-4.39c0.042-0.736,0.045-1.462,0.21-2.22c0.19-0.742,0.456-1.416,0.721-2.101
		C64.343,150.31,65.547,147.654,66.808,145.023z M66.808,145.023c-1.094,2.703-2.211,5.399-3.177,8.142
		c-0.234,0.683-0.472,1.382-0.615,2.06c-0.126,0.672-0.11,1.416-0.124,2.134c-0.003,1.449,0.043,2.906,0.108,4.355l0.008,0.176
		l-0.146,0.121c-2.754,2.278-5.565,4.486-8.353,6.722l-0.88,0.706l0.131-1.125c0.275-2.367,0.542-4.733,0.87-7.094
		c0.354-2.357,0.64-4.724,1.222-7.077c0.581-2.324,1.213-4.618,1.9-6.9l2.101-6.829l0.113-0.368l0.306,0.218
		C62.516,141.859,64.7,143.481,66.808,145.023z"/>
</g>
<g>
	<g>
		<path fill="#E6F0F3" d="M62.446,164.722c0,0-1.226,10.421-5.401,10.329c-2.237-0.049-4.259-6.133-4.599-10.329
			c-0.262-3.241,1.252-7.193,1.252-7.193c0.701-0.461,1.634,1.605,3.34,1.53c1.738-0.076,2.581-1.864,3.467-1.53
			C60.506,157.529,63.55,160.337,62.446,164.722z"/>
		<path fill="#0F9BD8" d="M62.495,164.731c-0.388,2.6-0.767,5.239-1.844,7.734c-0.276,0.621-0.621,1.224-1.086,1.766
			c-0.457,0.538-1.081,1.024-1.854,1.196c-0.368,0.083-0.785,0.113-1.215-0.029c-0.406-0.139-0.715-0.39-0.974-0.651
			c-0.516-0.528-0.844-1.144-1.141-1.754c-0.577-1.232-0.929-2.52-1.272-3.8c-0.338-1.283-0.627-2.575-0.829-3.894
			c-0.417-2.685,0.113-5.396,0.972-7.942l0.041-0.122l0.142-0.106c0.284-0.212,0.733-0.161,0.922-0.05
			c0.223,0.101,0.368,0.214,0.51,0.321c0.276,0.215,0.508,0.42,0.747,0.595c0.477,0.351,0.95,0.562,1.428,0.528
			c0.512-0.028,0.989-0.267,1.481-0.615c0.249-0.173,0.492-0.374,0.796-0.577c0.156-0.099,0.322-0.205,0.554-0.279
			c0.222-0.08,0.542-0.094,0.804,0.016l0.11,0.046l0.05,0.053c0.513,0.538,0.871,1.097,1.178,1.715
			c0.295,0.616,0.507,1.266,0.632,1.926C62.919,162.128,62.796,163.475,62.495,164.731z M62.397,164.713
			c0.127-0.635,0.229-1.277,0.177-1.918c-0.026-0.64-0.181-1.266-0.388-1.859c-0.211-0.593-0.503-1.151-0.856-1.66
			c-0.336-0.507-0.752-1.006-1.157-1.385l0.16,0.099c-0.044-0.019-0.197,0.014-0.439,0.189c-0.228,0.16-0.476,0.375-0.749,0.579
			c-0.532,0.417-1.251,0.795-2.038,0.831c-0.829,0.064-1.587-0.348-2.112-0.78c-0.272-0.216-0.516-0.446-0.741-0.634
			c-0.11-0.092-0.223-0.176-0.294-0.209c-0.095-0.036-0.009-0.011,0.002-0.038l0.183-0.228c-0.448,1.189-0.832,2.448-1.096,3.709
			c-0.277,1.266-0.436,2.546-0.328,3.843c0.197,2.594,0.921,5.216,2.256,7.424c0.668,1.039,1.522,2.228,2.544,1.875
			c1.075-0.217,1.896-1.315,2.533-2.391C61.296,169.907,62.041,167.314,62.397,164.713z"/>
	</g>
	<path opacity="0.1" fill="#103554" d="M61.737,165.757c0,0-0.971,9.492-4.616,9.385c-2.19-0.065-4.094-5.659-4.576-9.489
		c-0.327-2.596,0.779-6.017,0.779-6.017c0.65-0.427,1.844,1.487,3.425,1.418c1.611-0.071,2.392-1.727,3.213-1.418
		C59.963,159.636,62.76,161.693,61.737,165.757z"/>
</g>
<g>
	<g>
		<g>
			<path fill="#103554" d="M113.829,191.388H88.67c-1.431,0-2.592-1.16-2.592-2.592l5.372-13.344c0-1.431,1.16-2.592,2.592-2.592
				h14.416c1.431,0,2.592,1.16,2.592,2.592l5.372,13.344C116.42,190.227,115.26,191.388,113.829,191.388z"/>
			<path fill="#0F9BD8" d="M113.829,191.388l-7.307,0.045c-2.436,0.021-4.872,0.015-7.307,0.065l-7.307,0.116
				c-1.237,0.002-2.393,0.078-3.697,0.018c-1.362-0.168-2.477-1.439-2.475-2.836l0-0.063l0.025-0.065
				c0.856-2.24,1.705-4.482,2.595-6.708l2.64-6.69l-0.035,0.183c-0.02-1.125,0.647-2.225,1.652-2.729
				c0.484-0.26,1.093-0.367,1.589-0.343l1.41,0.013c1.88,0.024,3.759,0.021,5.639,0.068l5.639,0.138l1.41,0.034
				c0.483-0.008,1.016,0.098,1.456,0.343c0.899,0.479,1.477,1.472,1.455,2.474l-0.012-0.06c0.868,2.235,1.709,4.481,2.6,6.707
				l2.646,6.688l0.002,0.005l0,0.005c-0.002,0.686-0.288,1.363-0.775,1.841C115.186,191.119,114.508,191.394,113.829,191.388z
				 M113.829,191.388c0.68-0.002,1.35-0.285,1.823-0.768c0.477-0.48,0.749-1.15,0.743-1.823l0.002,0.009l-2.725-6.656
				c-0.899-2.222-1.849-4.424-2.772-6.637l-0.011-0.027l0-0.033c-0.009-0.887-0.543-1.729-1.323-2.115
				c-0.394-0.196-0.81-0.276-1.267-0.251l-1.41,0.034l-5.639,0.138c-1.88,0.047-3.759,0.044-5.639,0.068l-1.41,0.013
				c-0.443-0.009-0.784,0.069-1.134,0.251c-0.675,0.362-1.119,1.096-1.127,1.861l-0.001,0.099l-0.035,0.084l-2.732,6.653
				c-0.901,2.222-1.842,4.427-2.777,6.635l0.025-0.128c-0.038,1.068,0.793,2.104,1.88,2.275c1.123,0.084,2.41,0.057,3.606,0.091
				l7.307,0.116c2.436,0.05,4.872,0.044,7.307,0.065L113.829,191.388z"/>
		</g>
		<g>
			<path fill="#E6F0F3" stroke="#0F9BD8" stroke-miterlimit="10" d="M134.865,147.795c0,0,0.423,5.294-1.872,11.109
				c-2.672,6.768-12.995,28.259-31.851,28.259c-18.539,0-28.905-21.321-31.724-28.259c-2.44-6.004-1.999-11.109-1.999-11.109
				c0.189-2.346,0.21-7.133,2.974-9.449c5.288-4.433,17.067,1.127,30.749,1.127C119.767,139.473,134.865,129.171,134.865,147.795z"
				/>
			<path opacity="0.1" fill="#103554" d="M133.383,149.525c0,0,0.405,5.061-1.79,10.621c-2.555,6.47-12.424,27.017-30.451,27.017
				c-17.725,0-27.634-20.384-30.33-27.017c-2.333-5.74-1.911-10.621-1.911-10.621c0.181-2.242,0.201-6.819,2.843-9.034
				c5.056-4.238,16.317,1.077,29.398,1.077C118.949,141.568,133.383,131.719,133.383,149.525z"/>
			<path fill="#022630" d="M109.637,143.08c0,2.546-4.292,4.611-9.588,4.611c-5.295,0-9.588-2.064-9.588-4.611
				c0-2.546,4.293-4.61,9.588-4.61C105.345,138.469,109.637,140.534,109.637,143.08z"/>
			<g>
				<path fill="#E6F0F3" stroke="#0F9BD8" stroke-miterlimit="10" d="M73.966,134.376c1.405,1.727,2.651,4.523-1.229,8.818
					c-3.88,4.295-14.138,9.565-19.208,6.935C48.458,147.499,67.156,126.01,73.966,134.376z"/>
				<path opacity="0.1" fill="#002337" d="M72.11,134.845c1.229,1.51,2.318,3.955-1.075,7.711
					c-3.393,3.756-12.364,8.365-16.797,6.065C49.803,146.321,66.155,127.529,72.11,134.845z"/>
				<path fill="#103554" d="M52.778,149.252c0.918-1.105,6.076-7.272,9.273-10.165c-0.304-1.504,1.044-3.554,3.323-4.874
					c2.59-1.501,5.402-1.49,6.279,0.023c0.877,1.514-0.512,3.958-3.102,5.459c-2.409,1.396-5.01,1.484-6.067,0.272
					c-3.228,2.945-8.489,9.268-9.072,9.972l-0.035,0.1C53.085,149.848,52.888,149.581,52.778,149.252z"/>
				<path fill="#A1BEDC" d="M65.478,134.394c-2.42,1.402-3.718,3.686-2.898,5.1c0.819,1.414,3.446,1.425,5.866,0.022
					c2.42-1.402,3.718-3.686,2.898-5.101C70.524,133.001,67.898,132.992,65.478,134.394z"/>
				<path fill="#003340" d="M65.475,134.4c2.298-1.332,4.781-1.39,5.728-0.182c-1.145-0.126-2.606,0.213-3.998,1.02
					c-2.42,1.402-3.718,3.686-2.898,5.101c0.042,0.072,0.088,0.14,0.138,0.203c-0.846-0.093-1.52-0.44-1.869-1.041
					C61.757,138.085,63.055,135.802,65.475,134.4z"/>
			</g>
			<g>
				<path fill="#E6F0F3" stroke="#0F9BD8" stroke-miterlimit="10" d="M127.569,134.376c-1.405,1.727-2.651,4.523,1.229,8.818
					c3.88,4.295,14.138,9.565,19.208,6.935C153.076,147.499,134.378,126.01,127.569,134.376z"/>
				<path opacity="0.1" fill="#002337" d="M129.425,134.845c-1.229,1.51-2.318,3.955,1.075,7.711
					c3.393,3.756,12.364,8.365,16.797,6.065C151.731,146.321,135.38,127.529,129.425,134.845z"/>
				<path fill="#103554" d="M148.757,149.252c-0.918-1.105-6.076-7.272-9.273-10.165c0.304-1.504-1.044-3.554-3.323-4.874
					c-2.59-1.501-5.402-1.49-6.279,0.023c-0.877,1.514,0.512,3.958,3.102,5.459c2.409,1.396,5.01,1.484,6.067,0.272
					c3.228,2.945,8.489,9.268,9.072,9.972l0.035,0.1C148.449,149.848,148.646,149.581,148.757,149.252z"/>
				<path fill="#A1BEDC" d="M136.057,134.394c2.42,1.402,3.718,3.686,2.898,5.1c-0.819,1.414-3.446,1.425-5.866,0.022
					c-2.42-1.402-3.718-3.686-2.898-5.101C131.01,133.001,133.636,132.992,136.057,134.394z"/>
				<path fill="#003340" d="M136.06,134.4c-2.298-1.332-4.781-1.39-5.728-0.182c1.145-0.126,2.606,0.213,3.998,1.02
					c2.42,1.402,3.718,3.686,2.898,5.101c-0.042,0.072-0.088,0.14-0.138,0.203c0.846-0.093,1.52-0.44,1.869-1.041
					C139.777,138.085,138.479,135.802,136.06,134.4z"/>
			</g>
		</g>
		<path fill="#B2B2B2" d="M106.136,142.077c0,0.514-2.233,2.623-4.985,2.623h-0.993c-2.756,0-4.981-2.109-4.981-2.623v-6.198
			c0-0.513,2.226-0.619,4.981-0.619h0.993c2.752,0,4.985,0.106,4.985,0.619V142.077z"/>
		<path fill="#103554" d="M106.136,140.948c0,0.514-2.233,2.623-4.985,2.623h-0.993c-2.756,0-4.981-2.109-4.981-2.623v-6.198
			c0-0.513,2.226-0.619,4.981-0.619h0.993c2.752,0,4.985,0.106,4.985,0.619V140.948z"/>
		<g>
			<path fill="#706F6F" stroke="#0F9BD8" stroke-width="0.25" stroke-miterlimit="10" d="M147.789,28.768
				c0,1.558,1.263,2.821,2.821,2.821c1.558,0,2.821-2,2.821-3.558l-1.949-2.083C149.923,25.947,147.789,27.21,147.789,28.768z"/>
			<path fill="#706F6F" stroke="#0F9BD8" stroke-width="0.25" stroke-miterlimit="10" d="M55.988,28.768
				c0,1.558-1.263,2.821-2.821,2.821s-2.821-2-2.821-3.558l1.949-2.083C53.854,25.947,55.988,27.21,55.988,28.768z"/>
			<g>
				<path fill="#103554" d="M172.008,81.678c0-40.86-29.26-73.017-70.12-73.017S32.252,40.819,32.252,81.678
					c0,17.664,28.777,55.631,69.637,55.631S172.008,98.602,172.008,81.678z"/>
				<path fill="#0F9BD8" d="M171.958,81.678c-0.058-8.706-1.391-17.424-4.226-25.658c-2.827-8.229-7.15-15.936-12.728-22.581
					c-5.584-6.636-12.405-12.227-20.062-16.275c-7.651-4.042-16.052-6.703-24.678-7.644c-8.608-0.946-17.417-0.561-25.848,1.532
					c-8.43,2.058-16.47,5.751-23.479,10.892C53.9,27.056,47.977,33.653,43.469,41.08c-4.537,7.421-7.62,15.689-9.309,24.202
					c-0.84,4.26-1.333,8.587-1.503,12.924l-0.058,3.255c0.019,1.075,0.089,2.137,0.27,3.199c0.352,2.118,0.952,4.198,1.713,6.218
					c3.149,8.067,8.287,15.257,14.197,21.565c5.95,6.297,12.87,11.693,20.486,15.81c7.613,4.097,15.926,6.981,24.523,8.02
					c8.582,1.061,17.366,0.429,25.709-1.89c8.351-2.299,16.245-6.184,23.34-11.181c7.093-5.006,13.446-11.087,18.73-17.999
					c2.644-3.453,4.989-7.146,6.877-11.067c0.96-1.952,1.774-3.977,2.406-6.057C171.477,86.005,171.947,83.856,171.958,81.678z
					 M172.058,81.678c0.002,2.192-0.459,4.353-1.077,6.442c-0.623,2.092-1.429,4.129-2.381,6.092
					c-1.865,3.95-4.221,7.648-6.811,11.159c-5.204,7.01-11.501,13.216-18.59,18.34c-7.087,5.119-15.012,9.143-23.449,11.576
					c-8.431,2.472-17.379,3.052-26.09,2.01c-8.728-1.053-17.194-3.934-24.892-8.127c-7.704-4.203-14.682-9.69-20.674-16.082
					c-5.964-6.396-11.097-13.706-14.23-21.941c-0.758-2.064-1.355-4.194-1.698-6.378c-0.176-1.091-0.241-2.205-0.251-3.309L32,78.18
					c0.208-4.37,0.741-8.724,1.623-13.006c1.752-8.562,4.904-16.864,9.511-24.299c4.587-7.44,10.574-14.007,17.578-19.235
					c7.01-5.224,15.08-9.007,23.566-11.146c8.488-2.176,17.368-2.621,26.071-1.726c8.707,0.919,17.28,3.462,25.001,7.632
					c7.725,4.154,14.62,9.839,20.138,16.639c5.531,6.787,9.769,14.601,12.492,22.897C170.721,64.23,172.057,72.957,172.058,81.678z"
					/>
			</g>
			<g>
				<path fill="#E6F0F3" d="M173.705,74.64c0-16.036-9.425-34.279-25.001-36.774c-13.545-2.169-25.902,10.386-46.816,10.386
					c-19.178,0-34.613-12.752-47.721-10.599c-13.273,2.18-24.097,19.375-24.097,36.986c0,22.267,13.444,41.853,33.164,53.157
					c11.279,6.465,21.144-6.198,38.653-6.198c15.783,0,25.345,13.213,36.048,7.624C159.068,118.19,173.705,97.875,173.705,74.64z"/>
				<path fill="#0F9BD8" d="M173.655,74.64c-0.022-4.22-0.67-8.43-1.853-12.476c-1.191-4.041-2.903-7.945-5.233-11.454
					c-2.318-3.504-5.238-6.643-8.743-8.942c-3.486-2.305-7.587-3.694-11.747-3.827c-4.18-0.044-8.264,1.13-12.214,2.53
					c-3.957,1.423-7.848,3.092-11.856,4.482c-3.998,1.408-8.12,2.545-12.34,3.136c-4.215,0.585-8.501,0.704-12.734,0.239
					c-8.506-0.908-16.473-4.113-24.357-7.04c-3.957-1.438-7.965-2.823-12.123-3.391c-2.073-0.343-4.176-0.267-6.247-0.033
					c-2.037,0.426-4.071,1.001-5.902,2.033c-3.708,1.949-6.893,4.852-9.403,8.22c-2.515,3.374-4.469,7.151-5.888,11.107
					c-1.417,3.959-2.299,8.11-2.593,12.302l-0.107,3.149l0.128,3.151c0.006,1.053,0.189,2.092,0.294,3.137
					c0.114,1.045,0.229,2.089,0.458,3.117c0.691,4.148,1.975,8.181,3.615,12.042c0.775,1.954,1.788,3.798,2.75,5.663
					c1.081,1.801,2.132,3.618,3.377,5.313c2.423,3.423,5.131,6.659,8.189,9.536c3.045,2.881,6.266,5.6,9.786,7.892
					c0.85,0.617,1.757,1.146,2.652,1.693c0.902,0.52,1.775,1.158,2.713,1.54c1.802,0.989,3.86,1.342,5.886,1.35
					c2.046,0.03,4.076-0.511,6.062-1.104c1.99-0.616,3.939-1.422,5.901-2.193c3.912-1.581,7.925-3.088,12.125-3.925
					c0.525-0.099,1.044-0.234,1.574-0.304l1.593-0.205c1.058-0.172,2.13-0.199,3.201-0.243c2.137-0.137,4.303,0.05,6.414,0.413
					c4.244,0.73,8.235,2.382,12.07,4.152c1.924,0.883,3.824,1.797,5.758,2.589c1.932,0.785,3.906,1.479,5.939,1.738
					c1.014,0.124,2.037,0.152,3.046,0.033c1.007-0.131,1.992-0.397,2.94-0.772c0.93-0.394,1.846-0.94,2.766-1.441
					c0.909-0.525,1.863-0.976,2.735-1.564c3.611-2.156,6.971-4.701,10.173-7.424c3.155-2.784,6.038-5.861,8.677-9.141
					c2.569-3.336,4.823-6.907,6.737-10.663c1.846-3.792,3.255-7.783,4.284-11.873C173.106,83.068,173.576,78.861,173.655,74.64z
					 M173.755,74.64c-0.055,4.228-0.501,8.449-1.424,12.581c-1,4.113-2.42,8.112-4.204,11.955
					c-1.868,3.801-4.083,7.426-6.622,10.824c-2.608,3.342-5.482,6.476-8.628,9.325c-3.195,2.787-6.558,5.399-10.178,7.622
					c-0.874,0.605-1.831,1.072-2.744,1.614c-0.929,0.519-1.821,1.072-2.833,1.517c-1.011,0.415-2.072,0.717-3.16,0.871
					c-1.089,0.142-2.191,0.125-3.272,0.006c-2.168-0.256-4.232-0.939-6.205-1.741c-1.976-0.807-3.886-1.722-5.802-2.598
					c-3.82-1.756-7.721-3.357-11.827-4.056c-2.047-0.348-4.12-0.526-6.2-0.389c-1.04,0.044-2.081,0.07-3.111,0.241l-1.549,0.201
					c-0.516,0.069-1.022,0.202-1.534,0.299c-4.094,0.824-8.028,2.307-11.949,3.863c-1.97,0.765-3.933,1.569-5.983,2.195
					c-2.045,0.602-4.161,1.16-6.357,1.125c-2.165-0.012-4.404-0.417-6.32-1.474c-1.021-0.43-1.862-1.057-2.785-1.594
					c-0.905-0.557-1.821-1.097-2.68-1.725c-7.034-4.76-13.274-10.755-18.079-17.769c-1.244-1.725-2.294-3.575-3.37-5.406
					c-0.958-1.895-1.965-3.769-2.733-5.753c-1.624-3.919-2.885-8.007-3.548-12.202c-0.224-1.039-0.335-2.094-0.444-3.15
					c-0.1-1.056-0.277-2.106-0.277-3.169l-0.11-3.18l0.128-3.183c0.323-4.235,1.24-8.418,2.693-12.402
					c1.456-3.981,3.449-7.777,6.006-11.164c2.56-3.37,5.711-6.362,9.479-8.365c1.854-1.063,3.925-1.669,6.008-2.12
					c2.117-0.258,4.27-0.349,6.378-0.018c4.231,0.546,8.279,1.913,12.258,3.323c3.981,1.425,7.921,2.941,11.945,4.182
					c4.019,1.245,8.126,2.221,12.297,2.646c4.166,0.428,8.383,0.281,12.529-0.323c4.15-0.615,8.2-1.77,12.181-3.117
					c3.984-1.353,7.876-2.991,11.877-4.401c3.987-1.4,8.188-2.526,12.493-2.421c4.292,0.199,8.458,1.692,11.974,4.087
					c3.531,2.39,6.433,5.606,8.717,9.167C171.332,57.724,173.724,66.186,173.755,74.64z"/>
			</g>
			<path opacity="0.1" fill="#103554" d="M170.94,73.923c0-15.727-9.243-33.619-24.52-36.066
				c-13.285-2.128-25.403,10.186-45.915,10.186c-18.808,0-33.947-12.506-46.802-10.395c-13.017,2.139-23.633,19.002-23.633,36.274
				c0,21.839,13.185,41.047,32.525,52.134c11.062,6.341,20.737-6.079,37.909-6.079c15.479,0,24.857,12.958,35.354,7.478
				C156.584,116.635,170.94,96.711,170.94,73.923z"/>
			<path fill="#3C3C3B" d="M101.888,47.249c13.878,0,18.939-3.844,27.374-9.864c5.103-3.643,8.682-8.378,16.523-8.878
				c4.219-0.269,7.645-0.476,7.645-0.476s-10.604-10.91-17.509-10.868c-2.533,0.015-8.592,1.975-12.47,6.412
				c-9.681,11.076-14.447,15.501-21.563,15.536c-7.115-0.036-11.882-4.46-21.563-15.536c-3.878-4.437-9.937-6.397-12.47-6.412
				c-6.905-0.042-17.509,10.868-17.509,10.868s3.426,0.207,7.645,0.476c7.84,0.5,11.42,5.235,16.523,8.878
				C82.949,43.405,88.011,47.249,101.888,47.249z"/>
			<g>
				<path fill="#E6F0F3" d="M101.888,46.033c13.878,0,18.939-3.844,27.374-9.864c5.103-3.643,8.682-8.378,16.523-8.878
					c4.219-0.269,7.645,0.74,7.645,0.74s-10.604-12.126-17.509-12.084c-2.533,0.015-8.592,1.975-12.47,6.412
					c-9.681,11.076-14.447,15.501-21.563,15.536c-7.115-0.036-11.882-4.46-21.563-15.536c-3.878-4.437-9.937-6.397-12.47-6.412
					c-6.905-0.042-17.509,12.084-17.509,12.084s3.426-1.009,7.645-0.74c7.84,0.5,11.42,5.235,16.523,8.878
					C82.949,42.189,88.011,46.033,101.888,46.033z"/>
				<path fill="#0F9BD8" d="M101.888,45.983c4.7-0.05,9.471-0.447,13.907-2.057c4.456-1.571,8.307-4.368,12.102-7.142
					c1.933-1.363,3.709-2.859,5.526-4.389c1.825-1.503,3.765-2.946,5.964-3.961c2.199-1.003,4.608-1.553,7.015-1.617
					c2.41-0.066,4.795,0.184,7.147,0.807l-0.439,0.687c-1.744-1.95-3.615-3.819-5.562-5.58c-1.958-1.747-4.011-3.413-6.272-4.724
					c-2.244-1.262-4.805-2.312-7.367-1.551c-2.548,0.571-4.976,1.703-7.133,3.183c-2.203,1.453-3.818,3.573-5.606,5.527
					c-1.759,1.977-3.541,3.938-5.432,5.798c-1.892,1.854-3.907,3.614-6.192,5.008c-1.157,0.667-2.376,1.251-3.672,1.622
					c-1.297,0.363-2.639,0.543-3.985,0.575c-1.346-0.013-2.693-0.172-4.001-0.518c-1.308-0.353-2.542-0.922-3.717-1.576
					c-2.324-1.364-4.367-3.117-6.283-4.957c-1.917-1.847-3.721-3.793-5.503-5.754l-2.643-2.953c-0.868-0.947-1.852-1.791-2.911-2.53
					c-2.124-1.461-4.528-2.574-7.025-3.156c-2.487-0.756-4.942,0.24-7.193,1.478c-2.251,1.276-4.317,2.912-6.288,4.634
					c-1.965,1.731-3.846,3.59-5.591,5.53l-0.529-0.827c2.369-0.617,4.756-0.856,7.173-0.78c2.413,0.076,4.827,0.629,7.029,1.64
					c2.201,1.023,4.14,2.472,5.962,3.979c1.816,1.532,3.589,3.028,5.521,4.393c3.792,2.779,7.643,5.573,12.097,7.146
					C92.418,45.53,97.188,45.93,101.888,45.983z M101.888,46.083c-2.361-0.008-4.724-0.097-7.072-0.376
					c-2.347-0.284-4.669-0.795-6.917-1.546c-4.534-1.475-8.5-4.217-12.368-6.89c-1.96-1.309-3.842-2.803-5.668-4.271
					c-1.832-1.468-3.731-2.833-5.836-3.77c-4.206-1.876-9.116-1.811-13.537-0.709l-1.634,0.407l1.105-1.234
					c1.788-1.997,3.672-3.867,5.671-5.639c2.005-1.757,4.101-3.438,6.457-4.775c0.612-0.296,1.18-0.666,1.83-0.899l0.952-0.386
					c0.327-0.11,0.669-0.186,1.003-0.28c0.332-0.1,0.672-0.178,1.032-0.192c0.354-0.027,0.706-0.08,1.062-0.081
					c0.721,0.021,1.395,0.147,2.061,0.302c2.652,0.64,5.125,1.81,7.347,3.357c1.105,0.782,2.135,1.677,3.048,2.686l2.628,2.979
					c1.746,1.98,3.512,3.942,5.379,5.794c1.867,1.847,3.847,3.591,6.073,4.942c1.124,0.647,2.3,1.21,3.546,1.566
					c1.246,0.348,2.538,0.521,3.838,0.553c1.299-0.012,2.596-0.165,3.854-0.495c1.257-0.338,2.449-0.886,3.59-1.52
					c2.264-1.321,4.273-3.056,6.164-4.891c1.892-1.839,3.682-3.786,5.45-5.751l2.626-2.976c0.896-0.991,1.909-1.873,2.998-2.644
					c2.188-1.527,4.637-2.679,7.238-3.33c0.652-0.157,1.315-0.284,2.005-0.308c0.342-0.001,0.682,0.049,1.024,0.073
					c0.347,0.01,0.678,0.084,1.003,0.181c0.327,0.09,0.661,0.161,0.982,0.267l0.939,0.374c0.64,0.224,1.206,0.589,1.813,0.877
					c2.346,1.302,4.456,2.953,6.473,4.685c2.017,1.741,3.912,3.601,5.701,5.588l0.917,1.018l-1.356-0.332
					c-4.447-1.088-9.362-1.128-13.576,0.759c-2.107,0.944-4.005,2.316-5.834,3.788c-1.825,1.47-3.704,2.965-5.663,4.275
					c-3.864,2.677-7.83,5.418-12.362,6.893c-2.247,0.751-4.568,1.265-6.915,1.55C106.612,45.983,104.249,46.073,101.888,46.083z"/>
			</g>
			<path opacity="0.1" fill="#103554" d="M101.991,42.202c13.195,0,18.008-3.138,26.028-8.054c4.852-2.974,8.256-6.84,15.711-7.249
				c4.011-0.22,7.269,0.604,7.269,0.604s-10.083-9.9-16.648-9.866c-2.409,0.012-8.17,1.613-11.857,5.235
				c-9.205,9.044-13.737,12.656-20.502,12.685c-6.766-0.029-11.298-3.641-20.502-12.685c-3.687-3.622-9.448-5.223-11.857-5.235
				c-6.566-0.034-16.648,9.866-16.648,9.866s3.258-0.824,7.269-0.604c7.455,0.408,10.858,4.274,15.711,7.249
				C83.983,39.064,88.795,42.202,101.991,42.202z"/>
			<path fill="#3C3C3B" d="M107.437,29.131c0,1.959-2.262,3.543-5.048,3.543h-1.005c-2.79,0-5.044-1.584-5.044-3.543V5.525
				c0-1.954,2.254-2.359,5.044-2.359h1.005c2.786,0,5.048,0.405,5.048,2.359V29.131z"/>
			<path fill="#DADADA" stroke="#0F9BD8" stroke-width="0.25" stroke-miterlimit="10" d="M159.077,83.503
				c0-51.431-25.071-20.694-57.189-20.694S44.7,33.591,44.7,83.503c0,32.118,25.071,33.319,57.189,33.319
				S159.077,115.62,159.077,83.503z"/>
			<path fill="#103554" stroke="#0F9BD8" stroke-width="0.25" stroke-miterlimit="10" d="M157.403,84.005
				c0-49.097-24.855-19.294-55.515-19.294S46.373,36.359,46.373,84.005c0,30.66,24.855,30.885,55.515,30.885
				S157.403,114.665,157.403,84.005z"/>
			<path fill="#FFED00" stroke="#0F9BD8" stroke-width="0.25" stroke-miterlimit="10" d="M84.605,84.005
				c0,4.58-1.781,8.292-6.36,8.292s-6.36-3.713-6.36-8.292c0-9.522,1.781-6.292,6.36-6.292S84.605,74.641,84.605,84.005z"/>
			<g>
				<g>
					<ellipse fill="#E6F0F3" cx="176.106" cy="68.771" rx="6.113" ry="8.81"/>
					<path fill="#0F9BD8" d="M176.106,77.632c-1.021-0.018-2.048-0.088-3.048-0.395c-0.999-0.294-1.927-0.983-2.485-1.925
						c-0.572-0.934-0.815-2.01-0.919-3.044c-0.113-1.041-0.101-2.072-0.076-3.092c0.102-2.026,0.11-4.125,0.794-6.113
						c0.351-0.979,0.997-1.896,1.915-2.44c0.914-0.54,1.957-0.793,2.992-0.902c1.002-0.16,2.199-0.069,3.163,0.46
						c0.982,0.495,1.799,1.265,2.409,2.149c1.237,1.769,1.838,3.904,1.886,6.019c0.049,2.109-0.405,4.281-1.565,6.066
						C180.074,76.196,178.204,77.623,176.106,77.632z M176.106,77.532c1.01-0.018,1.989-0.419,2.745-1.065
						c0.764-0.641,1.33-1.482,1.746-2.369c0.814-1.791,1.158-3.764,1.075-5.713c-0.068-1.941-0.545-3.905-1.597-5.523
						c-1.035-1.616-2.741-2.796-4.758-2.593c-0.983,0.041-2,0.162-2.85,0.659c-0.858,0.472-1.487,1.297-1.787,2.243
						c-0.311,0.946-0.362,1.962-0.365,2.966c0,1.007,0.057,2.023,0.097,3.039c0.096,2.015-0.026,4.077,0.718,5.843
						c0.38,0.871,1.107,1.579,2.023,1.975C174.067,77.399,175.097,77.504,176.106,77.532z"/>
				</g>
				
					<ellipse fill="#103554" stroke="#0F9BD8" stroke-width="0.25" stroke-miterlimit="10" cx="177.916" cy="68.771" rx="2.869" ry="6.557"/>
				<g>
					<path fill="#E6F0F3" d="M175.296,66.108c4.016-0.569,4.635-8.892,11.429-9.795c2.515-0.334,4.047-1.105,4.271-1.031
						c0.237,0.079-1.346,0.99-3.661,1.546c-6.49,1.559-8.753,14.94-12.207,13.485c0,0-0.08-0.84-0.067-2.165
						C175.07,67.22,175.296,66.108,175.296,66.108z"/>
					<path fill="#0F9BD8" d="M175.262,66.072c0.915-0.243,1.566-0.817,2.111-1.492c0.56-0.663,1.013-1.426,1.467-2.197
						c0.925-1.518,1.883-3.12,3.295-4.372c1.374-1.312,3.34-1.861,5.108-1.989c0.882-0.105,1.75-0.308,2.601-0.575l0.638-0.215
						c0.108-0.036,0.217-0.071,0.338-0.101l0.105-0.017c0.027-0.001,0.059,0.001,0.088,0.005c0.003-0.007,0.107,0.016,0.157,0.125
						c0.042,0.138-0.055,0.227-0.064,0.236c-0.028,0.03-0.058,0.06-0.081,0.077c-0.398,0.297-0.804,0.474-1.221,0.668
						c-0.819,0.39-1.702,0.68-2.553,0.943c-0.807,0.265-1.531,0.731-2.18,1.284c-1.285,1.135-2.292,2.595-3.179,4.118
						c-0.889,1.528-1.702,3.117-2.609,4.687c-0.464,0.78-0.95,1.557-1.561,2.283c-0.313,0.356-0.645,0.716-1.112,0.977
						c-0.447,0.272-1.116,0.345-1.604,0.087l-0.196-0.103l0.003-0.159l0.045-2.142c0.022-0.361,0.078-0.717,0.144-1.067
						C175.072,66.773,175.135,66.467,175.262,66.072z M175.331,66.145l-0.067,1.022c-0.017,0.349-0.023,0.696,0.003,1.038
						l0.176,2.079l-0.192-0.262c0.676,0.255,1.313-0.341,1.814-1.011c0.508-0.679,0.928-1.459,1.341-2.243
						c0.836-1.566,1.626-3.192,2.601-4.733c0.978-1.527,2.051-3.067,3.553-4.214c0.741-0.574,1.606-1.022,2.532-1.232
						c0.886-0.184,1.73-0.4,2.563-0.714c0.404-0.162,0.828-0.349,1.157-0.579c0.047,0.001,0.048-0.129,0.045,0.061
						c0.031,0.087,0.116,0.088,0.088,0.086l0.004,0l-0.061,0.009c-0.097,0.021-0.203,0.051-0.309,0.083l-0.643,0.199
						c-0.858,0.279-1.734,0.516-2.623,0.703c-0.902,0.183-1.722,0.377-2.501,0.761c-0.395,0.165-0.736,0.439-1.102,0.649
						c-0.323,0.283-0.686,0.507-0.981,0.822c-1.258,1.169-2.247,2.635-3.263,4.122c-0.526,0.73-1.063,1.475-1.725,2.128
						C177.09,65.557,176.224,66.123,175.331,66.145z"/>
				</g>
				<g>
					<circle fill="#E6F0F3" cx="192.776" cy="54.619" r="2.021"/>
					<path fill="#0F9BD8" d="M192.776,56.69c-0.53-0.013-1.116-0.075-1.654-0.417c-0.534-0.335-0.856-1.013-0.783-1.654
						c0.064-0.652,0.474-1.175,0.893-1.544c0.427-0.373,0.94-0.661,1.544-0.751c1.238-0.261,2.607,0.92,2.554,2.295
						c-0.014,0.665-0.341,1.334-0.893,1.662C193.897,56.623,193.306,56.688,192.776,56.69z M192.776,56.59
						c0.529,0.006,0.99-0.365,1.196-0.775c0.201-0.419,0.309-0.801,0.291-1.196c0.005-0.785-0.566-1.544-1.488-1.747
						c-0.456-0.093-0.994,0.053-1.314,0.433c-0.333,0.378-0.358,0.907-0.29,1.314c0.07,0.419,0.183,0.792,0.401,1.204
						C191.78,56.234,192.246,56.606,192.776,56.59z"/>
				</g>
				<path opacity="0.1" fill="#103554" d="M177.622,77.309c-2.816,0.817-5.614-0.328-6.62-1.862
					c-1.095-1.669-1.008-4.434-1.008-6.675c0-4.295,0-7.873,4.204-8.653c0,0-1.226,3.316-0.709,10.894
					C173.896,76.975,177.622,77.309,177.622,77.309z"/>
				<path opacity="0.1" fill="#103554" d="M175.296,66.108c4.016-0.569,4.635-8.892,11.429-9.795
					c2.515-0.334,3.862-1.086,4.086-1.012c0.237,0.079-1.471,0.661-3.786,1.217c-6.49,1.559-8.512,13.905-11.966,12.45
					c0,0-0.021-0.117,0.001-0.821C175.093,67.124,175.296,66.108,175.296,66.108z"/>
				<circle opacity="0.1" fill="#103554" cx="192.951" cy="54.444" r="1.725"/>
			</g>
			<path fill="#0F9BD8" stroke="#0F9BD8" stroke-width="0.25" stroke-miterlimit="10" d="M108.793,128.933
				c0,4.309-3.493,5.24-7.802,5.24s-7.802-0.931-7.802-5.24c0-4.309,3.493-4.866,7.802-4.866S108.793,124.625,108.793,128.933z"/>
			<path opacity="0.1" fill="#FFFFFF" stroke="#0F9BD8" stroke-width="0.25" stroke-miterlimit="10" d="M157.403,84.287
				c0-49.097-24.855-19.294-55.515-19.294S46.373,36.641,46.373,84.287c0,30.66,24.855,30.885,55.515,30.885
				S157.403,114.947,157.403,84.287z"/>
			<path opacity="0.1" fill="#0F9BD8" stroke="#0F9BD8" stroke-width="0.25" stroke-miterlimit="10" d="M155.566,71.859
				c-3.469-21.625-16.749-14.416-34.442-9.174c-3.326,0.985,10.651-1.246,20.765,1.327C150.797,66.278,155.841,73.57,155.566,71.859
				z"/>
			<path opacity="0.09" fill="#FFFFFF" stroke="#0F9BD8" stroke-width="0.25" stroke-miterlimit="10" d="M157.314,85.898
				c0-10.57,4.056-4.482-26.604-4.482s-84.426-43.164-84.426,4.482c0,0,2.347-11.639,33.007-11.639S157.314,116.558,157.314,85.898z
				"/>
			<path opacity="0.1" fill="#0F9BD8" stroke="#0F9BD8" stroke-width="0.25" stroke-miterlimit="10" d="M48.584,86.421
				c0,2.978,0.275,5.621,0.8,7.964c4.093,18.256,23.401,18.407,46.601,18.407c0,0-15.478-0.047-32.114-8.613
				C51.245,97.678,48.584,86.421,48.584,86.421z"/>
			<path fill="none" stroke="#0F9BD8" stroke-width="0.25" stroke-miterlimit="10" d="M63.235,127.797
				c0.61-0.465,4.502-6.002-8.903-13.931C43.8,107.637,40.92,98.756,39.854,80.042c-0.247-4.329-8.653-1.792-9.57-0.586"/>
			<path fill="none" stroke="#0F9BD8" stroke-width="0.25" stroke-miterlimit="10" d="M140.624,127.797
				c-0.61-0.465-4.502-6.002,8.903-13.931c10.531-6.229,13.411-15.11,14.477-33.824c0.247-4.329,8.653-1.792,9.57-0.586"/>
			<path fill="none" stroke="#0F9BD8" stroke-width="0.25" stroke-miterlimit="10" d="M47.349,40.172c0,0,2.989,4.442,9.756,4.086
				l4.686,5.919c0.006,2.421-4.173,4.179-4.173,4.179"/>
			<path fill="none" stroke="#0F9BD8" stroke-width="0.25" stroke-miterlimit="10" d="M154.075,39.512c0,0-2.989,4.442-9.756,4.086
				l-4.686,5.919c-0.006,2.421,4.173,4.179,4.173,4.179"/>
			<path fill="none" stroke="#0F9BD8" stroke-width="0.25" stroke-miterlimit="10" d="M99.544,46.033c0,0-2.808-4.203-9.575-3.847
				l-4.686-5.919c-0.006-2.421,4.173-4.179,4.173-4.179"/>
			<path fill="none" stroke="#0F9BD8" stroke-width="0.25" stroke-miterlimit="10" d="M104.005,46.033c0,0,2.808-4.203,9.575-3.847
				l4.686-5.919c0.006-2.421-4.075-4.081-4.075-4.081"/>
			<g>
				<path fill="#E6F0F3" d="M107.437,27.916c0,1.959-2.262,3.543-5.048,3.543h-1.005c-2.79,0-5.044-1.584-5.044-3.543V4.309
					c0-1.954,2.254-2.359,5.044-2.359h1.005c2.786,0,5.048,0.405,5.048,2.359V27.916z"/>
				<path fill="#0F9BD8" d="M107.487,27.916c0,0.807-0.393,1.573-0.964,2.124c-0.56,0.574-1.283,0.954-2.031,1.232
					c-0.75,0.28-1.568,0.384-2.359,0.408c-0.769,0.034-1.604,0.077-2.408-0.096c-0.801-0.165-1.607-0.442-2.294-0.956
					c-0.686-0.49-1.295-1.224-1.47-2.139c-0.09-0.477-0.068-0.874-0.069-1.256l0.011-1.176l0.022-2.351
					c0.063-3.135,0.227-6.269,0.241-9.404c0.051-3.135-0.02-6.269-0.101-9.404l-0.017-0.588c0.006-0.221,0.015-0.442,0.077-0.665
					c0.111-0.446,0.4-0.854,0.756-1.127c0.723-0.555,1.566-0.727,2.363-0.85c0.805-0.119,1.609-0.142,2.396-0.158
					c0.778-0.015,1.581-0.03,2.389,0.032c0.807,0.066,1.636,0.171,2.458,0.546c0.405,0.196,0.816,0.491,1.094,0.924
					c0.286,0.423,0.373,0.966,0.375,1.395c0.022,1.567-0.005,3.135-0.005,4.702c0.001,3.135-0.047,6.269-0.187,9.404
					C107.636,21.646,107.483,24.781,107.487,27.916z M107.387,27.916c0.004-3.135-0.149-6.269-0.279-9.404
					c-0.139-3.135-0.188-6.269-0.187-9.404c0-1.567-0.027-3.135-0.005-4.702c0.027-0.675-0.255-1.116-0.864-1.428
					c-0.602-0.295-1.352-0.426-2.1-0.499c-0.754-0.078-1.521-0.07-2.31-0.087c-0.779-0.014-1.546-0.02-2.297,0.063
					c-0.742,0.084-1.498,0.229-2.052,0.608c-0.274,0.189-0.476,0.442-0.576,0.753c-0.055,0.154-0.07,0.324-0.087,0.495l-0.017,0.588
					c-0.081,3.135-0.152,6.269-0.101,9.404c0.014,3.135,0.178,6.269,0.241,9.404l0.022,2.351l0.011,1.176
					c0.008,0.399-0.022,0.794,0.037,1.087c0.255,1.309,1.63,2.268,3.043,2.652c0.723,0.216,1.472,0.241,2.266,0.266
					c0.773,0.035,1.537-0.003,2.28-0.216c0.74-0.199,1.448-0.557,2.014-1.08C106.997,29.424,107.373,28.688,107.387,27.916z"/>
			</g>
			<path opacity="0.1" fill="#103554" d="M106.521,26.562c0,1.856-1.888,3.358-4.215,3.358h-0.839c-2.33,0-4.211-1.501-4.211-3.358
				V4.186c0-1.852,1.882-2.236,4.211-2.236h0.839c2.326,0,4.215,0.384,4.215,2.236V26.562z"/>
			<g>
				<g>
					<ellipse fill="#E6F0F3" cx="27.781" cy="68.771" rx="6.113" ry="8.81"/>
					<path fill="#0F9BD8" d="M27.781,77.532c1.01-0.028,2.04-0.132,2.955-0.539c0.917-0.396,1.643-1.104,2.023-1.975
						c0.743-1.766,0.621-3.828,0.718-5.843c0.039-1.016,0.096-2.032,0.097-3.039c-0.003-1.004-0.054-2.02-0.365-2.966
						c-0.3-0.946-0.929-1.771-1.787-2.243c-0.85-0.497-1.868-0.618-2.85-0.659c-2.017-0.203-3.724,0.977-4.758,2.593
						c-1.052,1.618-1.529,3.582-1.597,5.523c-0.084,1.949,0.261,3.923,1.075,5.713c0.416,0.888,0.982,1.728,1.746,2.369
						C25.792,77.113,26.771,77.513,27.781,77.532z M27.781,77.632c-2.097-0.009-3.968-1.436-5.066-3.216
						c-1.161-1.785-1.614-3.957-1.565-6.066c0.048-2.116,0.649-4.251,1.886-6.019c0.61-0.884,1.427-1.654,2.409-2.149
						c0.963-0.529,2.16-0.62,3.163-0.46c1.035,0.11,2.078,0.362,2.992,0.902c0.918,0.544,1.564,1.461,1.915,2.44
						c0.684,1.988,0.693,4.087,0.794,6.113c0.024,1.02,0.037,2.051-0.076,3.092c-0.105,1.034-0.348,2.11-0.919,3.044
						c-0.558,0.942-1.485,1.631-2.485,1.925C29.829,77.543,28.801,77.614,27.781,77.632z"/>
				</g>
				
					<ellipse fill="#103554" stroke="#0F9BD8" stroke-width="0.25" stroke-miterlimit="10" cx="25.971" cy="68.771" rx="2.869" ry="6.557"/>
				<g>
					<path fill="#E6F0F3" d="M28.591,66.108c-4.016-0.569-4.635-8.892-11.429-9.795c-2.515-0.334-4.047-1.105-4.271-1.031
						c-0.237,0.079,1.346,0.99,3.661,1.546c6.49,1.559,8.753,14.94,12.207,13.485c0,0,0.08-0.84,0.067-2.165
						C28.817,67.22,28.591,66.108,28.591,66.108z"/>
					<path fill="#0F9BD8" d="M28.557,66.145c-0.894-0.022-1.76-0.588-2.41-1.224c-0.662-0.653-1.199-1.398-1.725-2.128
						c-1.016-1.487-2.005-2.953-3.263-4.122c-0.295-0.315-0.658-0.539-0.981-0.822c-0.366-0.21-0.707-0.484-1.102-0.649
						c-0.779-0.384-1.6-0.578-2.501-0.761c-0.889-0.187-1.765-0.424-2.623-0.703l-0.643-0.199c-0.106-0.032-0.212-0.062-0.309-0.083
						l-0.061-0.009l0.004,0c-0.028,0.002,0.057,0.001,0.088-0.086c-0.003-0.19-0.003-0.06,0.045-0.061
						c0.329,0.23,0.753,0.417,1.157,0.579c0.833,0.313,1.677,0.529,2.563,0.714c0.926,0.21,1.791,0.657,2.532,1.232
						c1.502,1.148,2.575,2.687,3.553,4.214c0.974,1.541,1.764,3.167,2.601,4.733c0.413,0.784,0.833,1.564,1.341,2.243
						c0.502,0.67,1.139,1.266,1.814,1.011l-0.192,0.262l0.176-2.079c0.027-0.342,0.02-0.689,0.003-1.038L28.557,66.145z
						 M28.625,66.072c0.127,0.395,0.19,0.701,0.261,1.063c0.065,0.35,0.122,0.705,0.144,1.067l0.045,2.142l0.003,0.159l-0.196,0.103
						c-0.488,0.257-1.157,0.185-1.604-0.087c-0.466-0.26-0.798-0.62-1.112-0.977c-0.612-0.726-1.098-1.504-1.561-2.283
						c-0.908-1.57-1.72-3.159-2.609-4.687c-0.887-1.523-1.894-2.983-3.179-4.118c-0.649-0.553-1.372-1.019-2.18-1.284
						c-0.85-0.262-1.734-0.553-2.553-0.943c-0.417-0.194-0.823-0.37-1.221-0.668c-0.024-0.016-0.054-0.046-0.081-0.077
						c-0.009-0.01-0.106-0.099-0.064-0.236c0.05-0.109,0.153-0.132,0.157-0.125c0.029-0.004,0.061-0.006,0.088-0.005l0.105,0.017
						c0.121,0.03,0.23,0.065,0.338,0.101l0.638,0.215c0.851,0.267,1.719,0.47,2.601,0.575c1.768,0.128,3.734,0.678,5.108,1.989
						c1.412,1.252,2.37,2.854,3.295,4.372c0.454,0.771,0.907,1.534,1.467,2.197C27.059,65.255,27.71,65.829,28.625,66.072z"/>
				</g>
				<g>
					<circle fill="#E6F0F3" cx="11.111" cy="54.619" r="2.021"/>
					<path fill="#0F9BD8" d="M11.111,56.59c0.53,0.016,0.995-0.357,1.204-0.767c0.218-0.412,0.331-0.785,0.401-1.204
						c0.067-0.408,0.042-0.937-0.29-1.314c-0.32-0.38-0.859-0.526-1.314-0.433c-0.922,0.204-1.493,0.962-1.488,1.747
						c-0.018,0.395,0.091,0.777,0.291,1.196C10.121,56.226,10.582,56.596,11.111,56.59z M11.111,56.69
						c-0.531-0.003-1.121-0.067-1.662-0.409c-0.552-0.328-0.878-0.997-0.893-1.662c-0.052-1.375,1.316-2.556,2.554-2.295
						c0.604,0.09,1.117,0.378,1.544,0.751c0.42,0.369,0.83,0.891,0.893,1.544c0.073,0.641-0.249,1.319-0.783,1.654
						C12.228,56.615,11.641,56.678,11.111,56.69z"/>
				</g>
				<path opacity="0.1" fill="#103554" d="M26.265,77.309c2.816,0.817,5.614-0.328,6.62-1.862c1.095-1.669,1.008-4.434,1.008-6.675
					c0-4.295,0-7.873-4.204-8.653c0,0,1.226,3.316,0.709,10.894C29.991,76.975,26.265,77.309,26.265,77.309z"/>
				<path opacity="0.1" fill="#103554" d="M28.591,66.108c-4.016-0.569-4.635-8.892-11.429-9.795
					c-2.515-0.334-3.862-1.086-4.086-1.012c-0.237,0.079,1.471,0.661,3.786,1.217c6.49,1.559,8.512,13.905,11.966,12.45
					c0,0,0.021-0.117-0.001-0.821C28.794,67.124,28.591,66.108,28.591,66.108z"/>
				<circle opacity="0.1" fill="#103554" cx="10.936" cy="54.444" r="1.725"/>
			</g>
			<path fill="#FFED00" stroke="#0F9BD8" stroke-width="0.25" stroke-miterlimit="10" d="M132.844,84.005
				c0,4.58-1.781,8.292-6.36,8.292s-6.36-3.713-6.36-8.292c0-9.522,1.781-6.292,6.36-6.292S132.844,74.641,132.844,84.005z"/>
		</g>
		<path fill="none" stroke="#0F9BD8" stroke-width="0.25" stroke-miterlimit="10" d="M97.617,158.105c0,0-4.216-6.31-14.376-5.776
			l-7.035-8.887c-0.009-3.635,6.266-6.275,6.266-6.275"/>
		<path fill="none" stroke="#0F9BD8" stroke-width="0.25" stroke-miterlimit="10" d="M104.419,158.105c0,0,4.216-6.31,14.376-5.776
			l7.035-8.887c0.009-3.635-6.266-6.275-6.266-6.275"/>
		<path fill="none" stroke="#0F9BD8" stroke-width="0.25" stroke-miterlimit="10" d="M115.095,182.806
			c-0.356-0.272-2.631-3.507,5.203-8.141c6.154-3.64,7.837-8.83,8.46-19.766c0.144-2.53,5.057-1.047,5.593-0.342"/>
		<path fill="none" stroke="#0F9BD8" stroke-width="0.25" stroke-miterlimit="10" d="M87.611,182.806
			c0.356-0.272,2.631-3.507-5.203-8.141c-6.154-3.64-7.837-8.83-8.46-19.766c-0.144-2.53-5.057-1.047-5.593-0.342"/>
	</g>
	<path fill="#103554" stroke="#0F9BD8" stroke-width="0.25" stroke-miterlimit="10" d="M120.787,174.378
		c-4.8,0.536-7.168,9.724-19.252,9.724c-11.073,0-14.748-9.265-19.657-9.724c-2.663-0.249-5.366-6.939-6.078-9.714
		c-0.306-1.191-0.81-4.852-0.81-4.852c0-2.674,2.188-4.862,4.862-4.862c0,0,10.61,1.621,21.683,1.621
		c8.102,0,21.278-1.621,21.278-1.621c2.674,0,4.862,2.188,4.862,4.862c0,0-0.505,3.661-0.81,4.852
		C126.152,167.439,123.444,174.081,120.787,174.378z"/>
	
		<image overflow="visible" width="447" height="204" xlink:href="../../../../../../DellRespaldo/Guillermo Carrillo/DNA/Ingeniero Guillermo/Logotipo/logo_DNA_447x204.png"  transform="matrix(0.0323 0 0 0.0323 113.8945 147.5068)">
	</image>
	<path opacity="0.2" fill="#103554" stroke="#0F9BD8" stroke-width="0.25" stroke-miterlimit="10" d="M120.07,173.52
		c-4.623,0.516-6.904,9.771-18.543,9.771c-10.665,0-14.205-9.329-18.933-9.771c-2.565-0.24-5.168-6.278-5.854-8.951
		c-0.294-1.147-0.781-4.673-0.781-4.673c0-2.576,2.107-3.873,4.683-3.873c0,0,10.219,1.561,20.885,1.561
		c7.804,0,20.494-1.561,20.494-1.561c2.576,0,4.683,1.297,4.683,3.873c0,0-0.486,3.526-0.781,4.673
		C125.238,167.242,122.63,173.235,120.07,173.52z"/>
	<path opacity="0.1" fill="#FFFFFF" d="M120.45,174.058c0,0,1.817-6.601,1.148-11.362c-0.609-4.337-4.241-6.793-4.241-6.793
		c2.978-0.303,5.044-0.557,5.044-0.557c2.576,0,4.683,2.107,4.683,4.683c0,0-0.486,3.526-0.781,4.673
		C125.618,167.374,123.009,173.772,120.45,174.058z"/>
	<path opacity="0.14" fill="#FFFFFF" d="M82.093,174.058c0,0-1.817-6.601-1.148-11.362c0.609-4.337,4.241-6.793,4.241-6.793
		c-2.978-0.303-5.044-0.557-5.044-0.557c-2.576,0-4.683,2.107-4.683,4.683c0,0,0.486,3.526,0.781,4.673
		C76.925,167.374,79.533,173.772,82.093,174.058z"/>
	<path opacity="0.14" fill="#36A9E1" d="M117.656,174.868c0,0-5.999,8.544-16.112,8.544c-9.267,0-16.451-8.544-16.451-8.544
		s7.583,5.049,16.28,5.044S117.656,174.868,117.656,174.868z"/>
	<path opacity="0.15" fill="#FFFFFF" d="M120.787,174.331c-4.8,0.536-7.168,9.724-19.252,9.724c-11.073,0-14.748-9.265-19.657-9.724
		c-2.663-0.249-5.366-6.939-6.078-9.714c-0.306-1.191-0.81-4.852-0.81-4.852c0-2.674,2.188-4.862,4.862-4.862
		c0,0,10.61,1.621,21.683,1.621c8.102,0,21.278-1.621,21.278-1.621c2.674,0,4.862,2.188,4.862,4.862c0,0-0.505,3.661-0.81,4.852
		C126.152,167.392,123.444,174.035,120.787,174.331z"/>
	<g>
		<path fill="#E6F0F3" d="M98.532,163.332c0,0.587-0.004,1.17-0.013,1.748c-0.008,0.578-0.013,1.16-0.013,1.747
			c0,0.342-0.096,0.618-0.286,0.829c-0.191,0.211-0.458,0.316-0.799,0.316h-1.889c-0.166,0-0.248-0.071-0.248-0.214
			c0-0.153,0.085-0.23,0.256-0.23h1.88c0.199,0,0.362-0.065,0.487-0.196c0.125-0.131,0.188-0.3,0.188-0.505
			c0-0.587,0.001-1.169,0.004-1.747c0.002-0.578,0.004-1.161,0.004-1.748c0-0.199-0.063-0.366-0.191-0.5
			c-0.127-0.134-0.29-0.201-0.489-0.201h-2.61v5.128c0,0.143-0.071,0.214-0.214,0.214s-0.213-0.071-0.213-0.214v-5.572h3.046
			c0.332,0,0.598,0.105,0.798,0.316S98.532,162.99,98.532,163.332z"/>
		<path fill="#E6F0F3" d="M103.686,167.776c0,0.143-0.068,0.214-0.205,0.214h-0.034c-0.057,0-0.088-0.018-0.094-0.052
			c-0.473-0.854-0.944-1.706-1.415-2.556c-0.469-0.849-0.941-1.7-1.414-2.555c-0.074-0.143-0.182-0.214-0.325-0.214
			c-0.256,0-0.384,0.125-0.384,0.376v4.752c0,0.143-0.07,0.213-0.209,0.213c-0.146,0-0.218-0.07-0.218-0.213v-4.752
			c0-0.223,0.077-0.411,0.23-0.568c0.154-0.156,0.345-0.235,0.573-0.235c0.291,0,0.501,0.126,0.632,0.376
			c0.382,0.701,0.763,1.395,1.145,2.081s0.764,1.381,1.146,2.081c0.028-0.057,0.053-0.112,0.072-0.166
			c0.021-0.055,0.044-0.11,0.073-0.167v-3.966c0-0.142,0.072-0.213,0.218-0.213c0.14,0,0.209,0.071,0.209,0.213V167.776z"/>
		<path fill="#E6F0F3" d="M108.651,167.767c0,0.137-0.071,0.205-0.214,0.205c-0.142,0-0.213-0.074-0.213-0.223
			c-0.126-0.78-0.25-1.555-0.372-2.324c-0.123-0.77-0.243-1.544-0.363-2.324c-0.051-0.331-0.279-0.496-0.684-0.496h-0.401
			c-0.2,0-0.358,0.042-0.475,0.124c-0.117,0.083-0.187,0.207-0.21,0.372c-0.125,0.78-0.247,1.557-0.367,2.328
			c-0.119,0.772-0.239,1.549-0.358,2.329c0,0.148-0.074,0.223-0.223,0.223c-0.143,0-0.214-0.068-0.214-0.205
			c0-0.023,0.006-0.052,0.018-0.086c0.125-0.78,0.248-1.557,0.367-2.329c0.12-0.771,0.242-1.548,0.367-2.328
			c0.086-0.564,0.45-0.847,1.095-0.847h0.401c0.644,0,1.009,0.282,1.094,0.847c0.125,0.78,0.249,1.555,0.372,2.324
			c0.122,0.77,0.246,1.544,0.371,2.324C108.648,167.699,108.651,167.727,108.651,167.767z M107.284,165.255
			c0,0.086-0.027,0.143-0.081,0.171c-0.055,0.028-0.121,0.043-0.201,0.043h-0.88c-0.086,0-0.154-0.016-0.205-0.047
			c-0.052-0.031-0.077-0.087-0.077-0.167s0.025-0.134,0.077-0.162c0.051-0.028,0.119-0.043,0.205-0.043h0.88
			c0.08,0,0.146,0.013,0.201,0.038C107.257,165.114,107.284,165.17,107.284,165.255z"/>
		<path fill="#E6F0F3" d="M92.084,173.123c0,0.342-0.105,0.609-0.316,0.803c-0.211,0.194-0.487,0.291-0.829,0.291h-1.761
			c-0.143,0-0.213-0.068-0.213-0.205c0-0.131,0.06-0.196,0.179-0.196c0.063,0,0.12,0,0.171,0s0.088-0.006,0.111-0.018h1.513
			c0.199,0,0.369-0.063,0.508-0.188c0.14-0.126,0.209-0.288,0.209-0.487c0-0.205-0.056-0.356-0.167-0.453
			c-0.111-0.097-0.25-0.162-0.415-0.196c-0.166-0.034-0.348-0.049-0.547-0.043c-0.2,0.006-0.388,0.009-0.564,0.009
			c-0.154,0-0.3-0.028-0.44-0.086c-0.14-0.057-0.262-0.134-0.368-0.23s-0.188-0.212-0.248-0.346c-0.06-0.135-0.09-0.278-0.09-0.432
			c0-0.342,0.104-0.61,0.312-0.804s0.483-0.291,0.825-0.291h1.769c0.143,0,0.214,0.068,0.214,0.205s-0.071,0.205-0.214,0.205h-1.769
			c-0.2,0-0.368,0.064-0.504,0.192c-0.137,0.129-0.205,0.292-0.205,0.492c0,0.188,0.069,0.349,0.206,0.482
			c0.137,0.134,0.306,0.201,0.506,0.201h0.978c0.343,0,0.62,0.097,0.832,0.29C91.979,172.514,92.084,172.781,92.084,173.123z"/>
		<path fill="#E6F0F3" d="M95.306,173.994c0,0.137-0.074,0.205-0.222,0.205c-0.165,0-0.329,0.002-0.491,0.005
			c-0.163,0.003-0.326,0.004-0.492,0.004c-0.171,0-0.323-0.026-0.457-0.081c-0.134-0.054-0.25-0.133-0.349-0.235
			s-0.174-0.223-0.227-0.362s-0.079-0.295-0.079-0.466v-2.607c0-0.137,0.07-0.205,0.209-0.205c0.11,0,0.183,0.074,0.218,0.223v2.59
			c0,0.199,0.064,0.367,0.192,0.504c0.128,0.137,0.292,0.205,0.491,0.205h0.958C95.224,173.772,95.306,173.847,95.306,173.994z
			 M96.272,175.302c0,0.154-0.028,0.301-0.084,0.44c-0.057,0.14-0.133,0.262-0.231,0.367c-0.097,0.105-0.214,0.188-0.351,0.248
			s-0.285,0.09-0.444,0.09c-0.313,0-0.627-0.001-0.94-0.004c-0.313-0.003-0.627-0.005-0.94-0.005c-0.143,0-0.213-0.068-0.213-0.205
			c0-0.063,0.022-0.115,0.068-0.158c0.045-0.042,0.1-0.063,0.162-0.063h1.863c0.199,0,0.365-0.07,0.496-0.21
			c0.131-0.14,0.197-0.306,0.197-0.5c0-0.814-0.001-1.62-0.004-2.418s-0.004-1.604-0.004-2.419c0.006-0.045,0.027-0.093,0.063-0.141
			c0.035-0.049,0.086-0.073,0.151-0.073c0.142,0,0.213,0.068,0.213,0.205V175.302z"/>
		<path fill="#E6F0F3" d="M100.425,173.123c0,0.342-0.105,0.609-0.316,0.803c-0.211,0.194-0.487,0.291-0.829,0.291H97.52
			c-0.143,0-0.213-0.068-0.213-0.205c0-0.131,0.06-0.196,0.179-0.196c0.063,0,0.12,0,0.171,0s0.088-0.006,0.111-0.018h1.513
			c0.199,0,0.369-0.063,0.508-0.188c0.14-0.126,0.209-0.288,0.209-0.487c0-0.205-0.056-0.356-0.167-0.453
			c-0.111-0.097-0.25-0.162-0.415-0.196c-0.166-0.034-0.348-0.049-0.547-0.043c-0.2,0.006-0.388,0.009-0.564,0.009
			c-0.154,0-0.3-0.028-0.44-0.086c-0.14-0.057-0.262-0.134-0.368-0.23s-0.188-0.212-0.248-0.346c-0.06-0.135-0.09-0.278-0.09-0.432
			c0-0.342,0.104-0.61,0.312-0.804s0.483-0.291,0.825-0.291h1.769c0.143,0,0.214,0.068,0.214,0.205s-0.071,0.205-0.214,0.205h-1.769
			c-0.2,0-0.368,0.064-0.504,0.192c-0.137,0.129-0.205,0.292-0.205,0.492c0,0.188,0.069,0.349,0.206,0.482
			c0.137,0.134,0.306,0.201,0.506,0.201h0.978c0.343,0,0.62,0.097,0.832,0.29C100.32,172.514,100.425,172.781,100.425,173.123z"/>
		<path fill="#E6F0F3" d="M103.425,170.465c0,0.074-0.034,0.127-0.103,0.158s-0.152,0.052-0.252,0.06
			c-0.1,0.009-0.205,0.011-0.316,0.005s-0.209-0.009-0.295-0.009c-0.171,0-0.324-0.027-0.461-0.081
			c-0.137-0.055-0.255-0.133-0.354-0.235s-0.174-0.224-0.227-0.363s-0.078-0.295-0.078-0.466v-0.358c0-0.08,0.014-0.149,0.043-0.21
			c0.029-0.06,0.088-0.09,0.175-0.09c0.069,0,0.12,0.032,0.153,0.095c0.031,0.063,0.051,0.134,0.057,0.213v0.351
			c-0.006,0.2,0.058,0.369,0.191,0.509s0.301,0.209,0.5,0.209h0.667c0.063,0,0.128,0.017,0.196,0.048
			S103.425,170.386,103.425,170.465z M103.724,173.994c0,0.137-0.071,0.205-0.213,0.205c-0.183,0-0.36,0.002-0.534,0.005
			s-0.35,0.004-0.526,0.004c-0.165,0.006-0.314-0.021-0.448-0.081s-0.25-0.143-0.349-0.248s-0.176-0.229-0.231-0.371
			c-0.055-0.143-0.082-0.291-0.082-0.444V171.2c0-0.137,0.072-0.205,0.218-0.205c0.058,0,0.103,0.014,0.136,0.043
			c0.031,0.028,0.057,0.082,0.074,0.162v1.854c0,0.103,0.017,0.196,0.051,0.282c0.034,0.085,0.082,0.161,0.146,0.227
			c0.063,0.065,0.137,0.116,0.222,0.153c0.086,0.037,0.177,0.056,0.273,0.056h1.034
			C103.647,173.772,103.724,173.847,103.724,173.994z"/>
		<path fill="#E6F0F3" d="M107.741,171.346c0,0.153-0.031,0.296-0.094,0.427c-0.063,0.131-0.146,0.247-0.249,0.347
			s-0.225,0.178-0.364,0.234c-0.141,0.058-0.287,0.086-0.441,0.086c-0.172,0-0.356-0.005-0.553-0.013
			c-0.197-0.009-0.381,0.004-0.549,0.038c-0.169,0.034-0.309,0.1-0.42,0.196c-0.111,0.098-0.167,0.251-0.167,0.462
			c0,0.199,0.068,0.364,0.205,0.495c0.137,0.132,0.305,0.197,0.504,0.197c0.296-0.006,0.59-0.009,0.88-0.009
			c0.297,0,0.593-0.003,0.89-0.009c0.142,0,0.213,0.071,0.213,0.214c0,0.137-0.071,0.205-0.213,0.205h-1.77
			c-0.342,0-0.617-0.097-0.825-0.291c-0.208-0.193-0.312-0.461-0.312-0.803s0.105-0.609,0.316-0.804
			c0.211-0.193,0.487-0.29,0.829-0.29h0.974c0.2,0,0.369-0.064,0.509-0.192c0.14-0.129,0.21-0.292,0.21-0.491
			c0-0.2-0.07-0.363-0.21-0.492c-0.14-0.128-0.309-0.192-0.509-0.192h-0.966c-0.199,0-0.367,0.064-0.504,0.192
			c-0.137,0.129-0.205,0.292-0.205,0.492c0,0.137-0.074,0.205-0.222,0.205c-0.143,0-0.214-0.068-0.214-0.205
			c-0.006-0.342,0.098-0.61,0.312-0.804s0.491-0.291,0.833-0.291h0.966c0.342,0,0.618,0.098,0.829,0.291
			S107.741,171.004,107.741,171.346z"/>
		<path fill="#E6F0F3" d="M114.262,171.396c0,0.434,0,0.866,0,1.299c0,0.434,0,0.869,0,1.308v-0.017
			c0,0.028-0.009,0.051-0.027,0.068c-0.006,0.011-0.012,0.025-0.018,0.042c-0.006,0.018-0.015,0.037-0.026,0.061
			c-0.036,0.04-0.083,0.06-0.143,0.06c-0.148,0-0.223-0.071-0.223-0.214c0-0.438,0.002-0.874,0.005-1.308
			c0.003-0.433,0.004-0.865,0.004-1.299c0-0.205-0.049-0.358-0.146-0.462c-0.097-0.103-0.219-0.172-0.367-0.209
			s-0.312-0.054-0.491-0.051s-0.352,0.004-0.518,0.004c-0.165,0-0.312,0.057-0.439,0.171c-0.129,0.114-0.207,0.257-0.235,0.428
			c0.006,0.022,0.009,0.063,0.009,0.119v2.598c0,0.143-0.068,0.214-0.205,0.214h-0.009c-0.143,0-0.214-0.071-0.214-0.214v-2.598
			c0-0.057,0.003-0.097,0.009-0.119c-0.028-0.171-0.106-0.313-0.234-0.428s-0.273-0.171-0.438-0.171
			c-0.255,0-0.508,0.001-0.758,0.004c-0.249,0.003-0.502,0.005-0.757,0.005v3.333c0,0.143-0.07,0.214-0.21,0.214
			c-0.146,0-0.218-0.071-0.218-0.214v-3.564c0-0.137,0.071-0.205,0.214-0.205h1.729c0.325,0,0.619,0.148,0.881,0.444
			c0.269-0.308,0.563-0.455,0.882-0.444h0.839c0.154,0,0.298,0.032,0.433,0.095c0.134,0.063,0.251,0.145,0.351,0.247
			s0.179,0.224,0.235,0.363S114.262,171.243,114.262,171.396z"/>
	</g>
	<path opacity="0.5" fill="#FFFFFF" d="M34.846,70.95c0,0-2.42-17.952,14.536-27.508c0,0,14.41-8.357,28.432,1.25
		c0,0,5.79,3.88,8.497,8.984C86.311,53.676,52.875,31.146,34.846,70.95z"/>
	<path opacity="0.39" fill="#FFFFFF" d="M118.035,51.592c0,0,11.047-14.601,30.305-8.995c0,0,16.533,4.592,19.952,21.735
		c0,0,1.471,7.014-0.188,12.648C168.103,76.98,159.684,36.367,118.035,51.592z"/>
</g>
<g>
	<g>
		<path fill="#0F9BD8" d="M51.812,165.226c-0.001-0.001-0.002-0.002-0.003-0.003c-0.578-0.511-0.847-1.294-0.719-2.095
			c0.112-0.702,0.514-1.267,1.076-1.511c0.089-0.039,0.229,0.284,0.14,0.323c-0.451,0.196-0.776,0.66-0.868,1.243
			c-0.108,0.68,0.118,1.344,0.604,1.775c0.942,0.794,2.529,1.293,4.244,1.335c1.754,0.076,4.33-0.288,5.829-1.563
			c0.318-0.264,1.833-1.662,0.605-3.386c-0.056-0.079,0.23-0.283,0.286-0.204c1.092,1.533,0.324,3.037-0.665,3.859
			c-0.688,0.585-1.666,1.045-2.827,1.33c-1.016,0.249-2.169,0.404-3.24,0.315C54.759,166.52,53.974,166.55,51.812,165.226z"/>
	</g>
	<path fill="#F8F7F7" d="M54.247,163.427c0.926,0.291,1.782,0.634,2.715,0.868c0.455,0.114,1.5,0.278,1.105,0.939
		c-0.072,0.12-0.174,0.208-0.298,0.269c-0.582,0.567-2.42,0.241-2.975,0.127c-0.896-0.183-2.88-0.939-3.036-2.031
		C51.587,162.409,53.746,163.27,54.247,163.427z"/>
	<path fill="#E6F0F3" d="M67.453,151.673c-1.248,0.216-2.471,0.624-3.58,1.221c-0.05-0.143-0.106-0.282-0.167-0.416
		c0.278-2.158,0.323-5.792,0.483-7.205c0.266-2.35-0.747-3.746-2.592-3.59c-2.099,0.177-2.569,3.761-2.867,5.339
		c-0.139,0.732-0.344,1.461-0.515,2.196c-0.068-0.004-0.137-0.008-0.206-0.011c-0.012-1.502-0.149-3.317-0.749-5.405
		c-0.472-1.642-1.44-3.614-3.383-2.843c-1.254,0.498-1.372,4.518-1.188,6.115c0.112,0.972,0.111,1.971,0.226,2.954
		c-0.116,0.049-0.23,0.101-0.342,0.155c-0.417-1.519-1.13-2.824-1.704-4.444c-0.716-2.019-2.469-2.773-3.897-1.631
		c-1.625,1.299-0.476,4.931,0.122,6.414c0.456,1.131,1.14,1.976,1.684,3.08c0.138,0.28,0.327,0.558,0.502,0.84
		c-0.356,2.357,0.224,6.213,2.498,7.629c-0.098,0.132-0.183,0.272-0.251,0.424c-0.018,0.014-0.009-0.033-0.021-0.017
		c-0.555,0.824-0.299,1.629,0.319,2.304c0.987,1.077,2.529,1.74,3.951,1.764c2.231,0.036,5.956-0.429,7.272-2.608
		c0.457-0.757,0.393-2.071-0.181-2.808c0.551-0.282,1.063-0.668,1.493-1.044c1.423-1.247,1.828-3.642,3.587-4.517
		c0.868-0.432,2.807-0.949,2.996-2.126C71.24,151.579,68.529,151.487,67.453,151.673z"/>
	<g>
		<path fill="#0F9BD8" d="M49.372,154.355l-0.498-0.047c0,0-0.004,0.057-0.012,0.164c-0.007,0.107-0.016,0.264-0.023,0.464
			c-0.011,0.4-0.011,0.972,0.059,1.654c0.07,0.681,0.209,1.473,0.48,2.289c0.068,0.204,0.342,0.992,0.863,1.808
			c0.127,0.191,0.266,0.376,0.415,0.551c0.299,0.351,0.645,0.665,1.026,0.915c0.381,0.25,0.796,0.433,1.212,0.548
			c0.417,0.115,0.834,0.164,1.226,0.166c1.246-0.004,1.984-0.233,2.679-0.537c0.183-0.083,0.444-0.253,0.528-0.326
			c0.042-0.037-0.006-0.127-0.043-0.096c-0.076,0.062-0.361,0.228-0.538,0.302c-0.176,0.075-0.248,0.18-1.532,0.409
			c-0.328,0.052-0.712,0.056-1.09,0.044c-0.377-0.012-0.773-0.07-1.165-0.189c-0.391-0.12-0.775-0.303-1.126-0.546
			c-0.351-0.244-0.668-0.547-0.941-0.886c-0.137-0.169-0.263-0.348-0.379-0.532c-0.431-0.617-0.716-1.549-0.776-1.746
			c-0.239-0.789-0.353-1.555-0.402-2.213c-0.05-0.659-0.035-1.21-0.014-1.594c0.012-0.192,0.024-0.343,0.034-0.445
			C49.367,154.41,49.372,154.355,49.372,154.355z"/>
	</g>
	<g>
		<path fill="#0F9BD8" d="M60.905,161.716c0.373-0.001,0.758-0.057,1.21-0.189c0.224-0.071,0.496-0.153,0.727-0.266
			c0.23-0.114,0.46-0.249,0.687-0.406c0.453-0.315,0.956-0.749,1.363-1.215c1.161-1.378,1.72-2.852,2.172-3.22
			c0.238-0.239,0.517-0.439,0.819-0.612c0.303-0.173,0.628-0.323,0.958-0.473c1.492-0.67,1.678-0.923,1.884-1.243
			c0.55-0.794,0.318-1.371,0.139-1.656c-0.055-0.087-0.256-0.461-0.906-0.771c-0.097-0.043-0.197-0.076-0.298-0.106
			c-0.201-0.057-0.405-0.091-0.607-0.109c-0.405-0.036-0.805-0.012-1.194,0.037c-0.389,0.05-0.768,0.128-1.137,0.222
			c-0.369,0.094-0.728,0.204-1.076,0.325c-0.697,0.242-1.353,0.523-1.961,0.831c-0.152,0.077-0.301,0.156-0.446,0.238
			c-0.072,0.041-0.958,0.599-1.204,0.776c-0.49,0.357-0.933,0.705-1.35,1.007c-0.415,0.303-0.802,0.563-1.157,0.763
			c-0.354,0.203-0.676,0.344-0.945,0.436c-0.26,0.086-0.466,0.132-0.609,0.156c-0.071,0.015-0.126,0.021-0.164,0.029
			c-0.038,0.008-0.059,0.014-0.063,0.019c-0.007,0.01,0.041,0.044,0.264,0.013c1.124-0.216,1.389-0.473,1.552-0.561
			c0.365-0.196,0.755-0.446,1.168-0.731c0.414-0.285,0.85-0.608,1.323-0.938c0.236-0.164,1.921-1.269,3.405-1.702
			c0.654-0.225,1.345-0.42,2.063-0.537c0.359-0.058,0.725-0.095,1.091-0.094c0.782-0.012,1.239,0.225,1.318,0.266
			c0.588,0.251,0.717,0.746,0.717,0.746c0.032,0.079,0.227,0.495-0.21,1.168c-0.104,0.133-0.226,0.256-0.359,0.367
			c-0.134,0.111-0.278,0.211-0.429,0.301c-0.076,0.044-0.435,0.219-0.477,0.239c-0.167,0.078-0.834,0.389-0.999,0.472
			c-0.33,0.166-0.657,0.352-0.953,0.584c-0.295,0.233-0.882,0.924-1.283,1.738c-0.332,0.6-0.689,1.163-1.078,1.666
			c-0.389,0.503-0.81,0.945-1.256,1.301c-0.223,0.177-0.379,0.455-1.818,0.892c-0.393,0.103-1.672,0.163-2.433-0.136
			c-0.118-0.055-0.17-0.082-0.169-0.069c0,0.011,0.057,0.064,0.18,0.136C59.52,161.457,59.728,161.655,60.905,161.716z"/>
	</g>
	<g>
		<path fill="#0F9BD8" d="M49.372,154.355c-0.33-0.457-1.265-1.854-1.654-2.761c-0.391-0.905-0.765-2.003-1.071-3.205
			c-0.076-0.301-0.272-0.898-0.34-1.855c-0.085-1.036,0.18-1.583,0.316-1.864c0.135-0.28,0.413-0.545,0.801-0.764
			c0.659-0.266,1.301-0.172,1.59-0.079c0.29,0.092,0.555,0.246,0.782,0.44c0.226,0.194,0.906,1.316,0.966,1.445
			c0.243,0.516,0.46,1.012,0.655,1.471c0.391,0.919,1.082,2.912,1.278,3.459c0.024,0.068,0.049-0.167-0.266-1.261
			c-0.187-0.554-0.475-1.337-0.85-2.266c-0.188-0.464-0.396-0.965-0.632-1.489c-0.058-0.131-0.394-0.975-0.996-1.538
			c-0.244-0.217-0.535-0.393-0.857-0.502c-0.321-0.109-0.944-0.177-1.772,0.054c-0.082,0.031-1.469,0.412-1.358,2.905
			c0.004,0.169,0.244,1.627,0.316,1.934c0.289,1.225,0.648,2.349,1.033,3.286c0.383,0.938,0.8,1.685,1.143,2.179
			c0.171,0.248,0.492,0.672,0.597,0.796C49.107,154.802,49.397,154.461,49.372,154.355z"/>
	</g>
	<g>
		<path fill="#0F9BD8" d="M53.137,150.461L53.137,150.461c-0.001-0.001,0.001,0.003,0.003,0.008l0.001,0.002l0,0.001
			c-0.085,0.026-0.019,0.006-0.036,0.011l0.008-0.003c0.006-0.002,0.011-0.004,0.017-0.005l0.009-0.003c0.003-0.001,0.001,0,0.001,0
			l0,0c0-0.001,0-0.001-0.001-0.002c-0.001-0.005-0.002-0.008-0.004-0.016c-0.007-0.028-0.247-2.099-0.286-3.038
			c-0.019-0.47-0.03-0.979-0.023-1.517c0.008-0.538,0.164-2.269,0.218-2.563c0.094-0.824,0.418-1.522,0.496-1.647
			c0.154-0.25,0.432-0.517,0.681-0.641c0.124-0.061,0.539-0.107,0.825-0.082c0.606,0.12,1.014,0.538,1.108,0.65
			c0.094,0.112,0.18,0.233,0.258,0.358c0.157,0.25,0.288,0.516,0.402,0.784c0.228,0.537,0.394,1.081,0.53,1.603
			c0.135,0.522,0.239,1.022,0.321,1.487c0.164,0.929,0.247,1.713,0.284,2.261c0.019,0.274,0.053,1.415,0.056,1.266
			c0.003-0.15,0.088-0.996,0.075-1.273c-0.027-0.554-0.095-1.343-0.243-2.282c-0.074-0.469-0.169-0.976-0.296-1.507
			c-0.128-0.53-0.286-1.086-0.51-1.644c-0.113-0.278-0.346-0.787-0.676-1.217c-0.101-0.125-0.62-0.684-1.248-0.766
			c-0.552-0.042-0.862,0.012-1.022,0.088c-0.16,0.076-0.36,0.174-0.483,0.295c-0.23,0.256-0.526,0.281-0.914,2.201
			c-0.062,0.304-0.109,0.606-0.146,0.903c-0.074,0.595-0.11,1.172-0.128,1.719c-0.018,0.547-0.017,1.064-0.006,1.54
			c0.022,0.953,0.08,1.746,0.133,2.301c0.027,0.278,0.121,0.929,0.143,1.081C52.697,150.887,53.137,150.461,53.137,150.461z"/>
	</g>
	<g>
		<path fill="#0F9BD8" d="M57.975,149.373l0.499,0.03c0,0,0.005-0.084,0.014-0.242c0.01-0.158,0.026-0.39,0.053-0.685
			c0.054-0.589,0.145-1.433,0.339-2.427c0.098-0.496,0.223-1.031,0.397-1.58c0.087-0.275,0.188-0.552,0.306-0.828
			c0.119-0.275,0.257-0.548,0.424-0.804c0.167-0.255,0.364-0.496,0.602-0.682c0.238-0.185,0.523-0.315,0.827-0.373
			c0.304-0.059,0.626-0.048,0.935,0.028c0.309,0.077,0.604,0.217,0.858,0.411c0.127,0.097,0.734,0.412,0.914,1.644
			c0.116,0.992-0.13,3.184-0.17,3.774c-0.01,0.148-0.166,2.629-0.199,3.044c-0.033,0.415-0.059,0.778-0.074,1.077
			c-0.014,0.3-0.023,0.534-0.019,0.698c0.002,0.082,0.011,0.293,0.089,0.385c0.033,0.047,0.117,0.054,0.128,0.045
			c0.011-0.009,0.008-0.033-0.007-0.068c-0.015-0.035-0.138-0.112-0.059-1.052c0.02-0.297,0.052-0.658,0.092-1.072
			c0.04-0.414,0.398-4.233,0.468-4.873c0.035-0.32,0.063-0.648,0.072-0.982c0.008-0.334-0.001-0.676-0.052-1.019
			c-0.027-0.171-0.06-0.344-0.112-0.513c-0.051-0.169-0.117-0.336-0.199-0.497c0,0-0.44-0.994-1.648-1.318
			c-0.35-0.093-0.72-0.113-1.078-0.051c-0.357,0.061-0.698,0.209-0.984,0.424c-0.286,0.216-0.51,0.483-0.698,0.759
			c-0.188,0.277-0.339,0.566-0.47,0.854c-0.13,0.288-0.24,0.576-0.336,0.86c-0.191,0.567-0.328,1.113-0.437,1.619
			c-0.216,1.014-0.324,1.869-0.389,2.468c-0.032,0.3-0.053,0.536-0.066,0.697C57.981,149.287,57.975,149.373,57.975,149.373z"/>
	</g>
	<g>
		<path fill="#0F9BD8" d="M61.409,150.288c-0.141-0.145-0.383-0.311-0.703-0.47c-0.32-0.158-0.716-0.314-1.172-0.437
			c-0.114-0.03-0.667-0.125-0.73-0.133c-0.252-0.03-0.514-0.06-0.783-0.077c-0.134-0.011-0.941-0.025-1.674,0.012
			c-0.829,0.117-1.503,0.29-1.784,0.391c-0.563,0.2-1.071,0.477-1.498,0.775c-0.427,0.3-0.775,0.619-1.047,0.903
			c-0.272,0.284-0.47,0.533-0.607,0.701c-0.255,0.331-0.212,0.396,0.05,0.067c0.15-0.177,0.359-0.412,0.636-0.667
			c0.276-0.255,0.619-0.53,1.026-0.787c1.294-0.76,2.485-0.967,3.068-1.033c0.541-0.064,1.098-0.084,1.64-0.075
			c1.228,0.003,3.148,0.565,3.534,0.901c0.138,0.14,0.195,0.214,0.217,0.202C61.586,150.559,61.59,150.508,61.409,150.288z"/>
	</g>
	<path opacity="0.1" fill="#103554" d="M54.005,151.131c-0.54,0.003-1.013,0.289-1.463,0.556c-0.332,0.197-0.619,0.448-0.878,0.728
		c-0.5,0.441-0.917,0.988-1.19,1.59c-0.35,0.772-0.386,2.473,0.927,2.185c0.932-0.204,0.873-1.615,1.243-2.261
		c0.257-0.447,0.607-0.747,1.005-1.079c0.328-0.274,0.733-0.47,0.975-0.824C54.998,151.484,54.599,151.128,54.005,151.131z"/>
	<path opacity="0.1" fill="#103554" d="M48.122,146.899c-0.036-0.557,0.099-0.972,0.21-1.512c0.175-0.844-0.35-1.366-1.026-0.676
		c-0.012,0.012-0.023,0.024-0.034,0.036l0.005-0.04c-0.649,0.502-0.565,1.687-0.479,2.407c0.061,0.509,0.229,1.214,0.623,1.572
		c0.334,0.303,0.644,0.256,0.745-0.197C48.284,147.967,48.156,147.422,48.122,146.899z"/>
	<path opacity="0.1" fill="#103554" d="M55.024,142.068c-0.109-1.108-1.156-0.652-1.463,0.14c-0.083,0.213-0.111,0.469-0.104,0.709
		c-0.072,0.391-0.101,0.759-0.111,0.922c-0.024,0.402-0.085,1.151,0.36,1.386c0.418,0.221,0.569-0.415,0.613-0.712
		c0.075-0.511,0.134-0.991,0.356-1.468C54.828,142.716,55.063,142.459,55.024,142.068z"/>
	<path opacity="0.1" fill="#103554" d="M62.046,142.204c-0.923-0.165-1.507,0.409-1.837,1.147c-0.188,0.302-0.326,0.627-0.407,0.896
		c-0.132,0.436-0.266,1.127,0.088,1.495c0.298,0.31,0.666,0.139,0.878-0.178c0.282-0.42,0.353-0.963,0.674-1.368
		c0.253-0.319,0.671-0.425,0.995-0.648C63.162,143.051,62.79,142.337,62.046,142.204z"/>
</g>
<g>
	<g>
		<path fill="#0F9BD8" d="M150.276,165.164c0.001-0.001,0.002-0.002,0.003-0.003c0.578-0.511,0.847-1.294,0.719-2.095
			c-0.112-0.702-0.514-1.267-1.076-1.511c-0.089-0.039-0.229,0.284-0.14,0.323c0.451,0.196,0.776,0.66,0.868,1.243
			c0.108,0.68-0.118,1.344-0.604,1.775c-0.942,0.794-2.529,1.293-4.244,1.335c-1.754,0.076-4.33-0.288-5.829-1.563
			c-0.318-0.264-1.833-1.662-0.605-3.386c0.056-0.079-0.23-0.283-0.286-0.204c-1.092,1.533-0.324,3.037,0.665,3.859
			c0.688,0.585,1.666,1.045,2.827,1.33c1.016,0.249,2.169,0.404,3.24,0.315C147.329,166.458,148.114,166.489,150.276,165.164z"/>
	</g>
	<path fill="#F8F7F7" d="M147.841,163.365c-0.926,0.291-1.782,0.634-2.715,0.868c-0.455,0.114-1.5,0.278-1.105,0.939
		c0.072,0.121,0.174,0.208,0.298,0.269c0.582,0.567,2.42,0.241,2.975,0.127c0.896-0.183,2.88-0.939,3.036-2.031
		C150.501,162.347,148.342,163.208,147.841,163.365z"/>
	<path fill="#E6F0F3" d="M134.635,151.611c1.248,0.216,2.471,0.624,3.58,1.221c0.05-0.143,0.106-0.281,0.167-0.416
		c-0.278-2.158-0.323-5.792-0.483-7.205c-0.266-2.35,0.747-3.746,2.592-3.59c2.099,0.177,2.569,3.761,2.867,5.339
		c0.139,0.732,0.344,1.461,0.515,2.196c0.068-0.004,0.137-0.008,0.206-0.011c0.012-1.502,0.149-3.317,0.749-5.405
		c0.472-1.642,1.44-3.614,3.383-2.843c1.254,0.497,1.372,4.518,1.188,6.115c-0.112,0.972-0.111,1.971-0.226,2.954
		c0.116,0.049,0.23,0.101,0.342,0.155c0.417-1.519,1.13-2.824,1.704-4.444c0.716-2.019,2.469-2.773,3.897-1.631
		c1.625,1.299,0.476,4.931-0.122,6.414c-0.456,1.131-1.14,1.976-1.684,3.08c-0.138,0.28-0.327,0.558-0.502,0.84
		c0.356,2.357-0.224,6.213-2.498,7.629c0.098,0.132,0.183,0.272,0.251,0.424c0.018,0.014,0.009-0.033,0.021-0.017
		c0.555,0.824,0.299,1.629-0.319,2.304c-0.987,1.077-2.529,1.74-3.951,1.764c-2.231,0.036-5.956-0.429-7.272-2.608
		c-0.457-0.757-0.393-2.071,0.181-2.808c-0.551-0.282-1.063-0.668-1.493-1.044c-1.423-1.247-1.828-3.642-3.587-4.517
		c-0.868-0.432-2.807-0.949-2.996-2.126C130.848,151.517,133.559,151.425,134.635,151.611z"/>
	<g>
		<path fill="#0F9BD8" d="M152.716,154.293l0.498-0.047c0,0,0.004,0.057,0.012,0.164c0.007,0.107,0.016,0.264,0.023,0.464
			c0.011,0.4,0.011,0.972-0.059,1.654c-0.07,0.681-0.209,1.473-0.48,2.289c-0.068,0.204-0.342,0.992-0.863,1.808
			c-0.127,0.191-0.266,0.376-0.415,0.551c-0.299,0.351-0.645,0.665-1.026,0.915c-0.381,0.25-0.796,0.433-1.212,0.548
			c-0.417,0.115-0.834,0.164-1.226,0.166c-1.246-0.004-1.984-0.233-2.679-0.537c-0.183-0.083-0.444-0.253-0.528-0.326
			c-0.042-0.037,0.006-0.127,0.043-0.096c0.076,0.062,0.361,0.228,0.538,0.302c0.176,0.075,0.248,0.18,1.532,0.409
			c0.328,0.052,0.712,0.056,1.09,0.044c0.377-0.012,0.773-0.07,1.165-0.189c0.391-0.12,0.775-0.303,1.126-0.546
			c0.351-0.244,0.668-0.547,0.941-0.886c0.137-0.169,0.263-0.348,0.379-0.532c0.431-0.617,0.716-1.549,0.776-1.746
			c0.239-0.789,0.353-1.555,0.402-2.213c0.05-0.659,0.035-1.21,0.014-1.594c-0.012-0.192-0.024-0.343-0.034-0.445
			C152.721,154.348,152.716,154.293,152.716,154.293z"/>
	</g>
	<g>
		<path fill="#0F9BD8" d="M141.183,161.654c-0.373-0.001-0.758-0.057-1.21-0.189c-0.224-0.071-0.496-0.153-0.727-0.266
			c-0.23-0.114-0.46-0.249-0.687-0.406c-0.453-0.315-0.956-0.749-1.363-1.215c-1.161-1.378-1.72-2.852-2.172-3.22
			c-0.238-0.239-0.517-0.439-0.819-0.612c-0.303-0.173-0.628-0.323-0.958-0.473c-1.492-0.67-1.678-0.923-1.884-1.243
			c-0.55-0.794-0.318-1.371-0.139-1.656c0.055-0.087,0.256-0.461,0.906-0.771c0.097-0.043,0.197-0.076,0.298-0.106
			c0.201-0.057,0.405-0.091,0.607-0.109c0.405-0.036,0.805-0.012,1.194,0.037c0.389,0.05,0.768,0.128,1.137,0.222
			c0.369,0.094,0.728,0.204,1.076,0.325c0.697,0.242,1.353,0.523,1.961,0.831c0.152,0.077,0.301,0.156,0.446,0.238
			c0.072,0.041,0.958,0.599,1.204,0.776c0.49,0.357,0.933,0.705,1.35,1.007c0.415,0.303,0.802,0.562,1.157,0.763
			c0.354,0.203,0.676,0.344,0.945,0.436c0.26,0.086,0.466,0.132,0.609,0.156c0.071,0.015,0.126,0.021,0.164,0.029
			c0.038,0.008,0.059,0.014,0.063,0.019c0.007,0.01-0.041,0.044-0.264,0.013c-1.124-0.216-1.389-0.473-1.552-0.561
			c-0.365-0.196-0.755-0.446-1.168-0.731c-0.414-0.285-0.85-0.608-1.323-0.938c-0.236-0.164-1.921-1.269-3.405-1.702
			c-0.654-0.225-1.345-0.42-2.063-0.537c-0.359-0.058-0.725-0.095-1.091-0.094c-0.782-0.012-1.239,0.225-1.318,0.266
			c-0.588,0.251-0.717,0.746-0.717,0.746c-0.032,0.079-0.227,0.495,0.21,1.168c0.104,0.133,0.226,0.256,0.359,0.367
			c0.134,0.111,0.278,0.211,0.429,0.301c0.076,0.044,0.435,0.219,0.477,0.239c0.167,0.078,0.834,0.389,0.999,0.472
			c0.33,0.166,0.657,0.352,0.953,0.584c0.295,0.233,0.882,0.924,1.283,1.738c0.332,0.6,0.689,1.163,1.079,1.666
			c0.389,0.503,0.81,0.945,1.256,1.301c0.223,0.177,0.379,0.455,1.818,0.892c0.393,0.103,1.672,0.163,2.433-0.136
			c0.118-0.055,0.17-0.082,0.169-0.069c0,0.011-0.057,0.064-0.18,0.136C142.568,161.395,142.359,161.593,141.183,161.654z"/>
	</g>
	<g>
		<path fill="#0F9BD8" d="M152.716,154.293c0.33-0.457,1.265-1.854,1.654-2.761c0.391-0.905,0.765-2.003,1.071-3.205
			c0.076-0.301,0.272-0.898,0.34-1.855c0.085-1.036-0.18-1.583-0.316-1.864c-0.135-0.28-0.413-0.545-0.801-0.764
			c-0.659-0.266-1.301-0.172-1.59-0.079c-0.29,0.092-0.555,0.246-0.782,0.44c-0.226,0.194-0.906,1.316-0.966,1.445
			c-0.243,0.516-0.46,1.012-0.655,1.471c-0.391,0.919-1.082,2.912-1.278,3.459c-0.024,0.068-0.049-0.167,0.266-1.261
			c0.187-0.554,0.475-1.337,0.85-2.266c0.188-0.464,0.396-0.965,0.632-1.489c0.058-0.131,0.394-0.975,0.996-1.538
			c0.244-0.217,0.535-0.393,0.857-0.502c0.321-0.109,0.944-0.177,1.772,0.054c0.082,0.031,1.469,0.412,1.358,2.905
			c-0.004,0.169-0.244,1.627-0.316,1.934c-0.289,1.225-0.648,2.349-1.033,3.286c-0.383,0.938-0.8,1.685-1.143,2.179
			c-0.171,0.248-0.492,0.672-0.597,0.796C152.981,154.74,152.691,154.399,152.716,154.293z"/>
	</g>
	<g>
		<path fill="#0F9BD8" d="M148.951,150.399L148.951,150.399c0.001-0.001-0.001,0.003-0.003,0.008l-0.001,0.002l0,0.001
			c0.085,0.026,0.019,0.006,0.036,0.011l-0.008-0.003c-0.006-0.002-0.011-0.004-0.017-0.005l-0.009-0.003
			c-0.003-0.001-0.001,0-0.001,0l0,0c0-0.001,0-0.001,0.001-0.002c0.001-0.005,0.002-0.008,0.004-0.016
			c0.007-0.028,0.247-2.099,0.286-3.038c0.019-0.47,0.03-0.979,0.023-1.517c-0.008-0.538-0.164-2.269-0.218-2.563
			c-0.094-0.824-0.418-1.522-0.496-1.647c-0.154-0.25-0.432-0.517-0.681-0.641c-0.124-0.061-0.539-0.107-0.825-0.082
			c-0.606,0.12-1.014,0.538-1.108,0.65c-0.094,0.112-0.18,0.233-0.258,0.358c-0.157,0.25-0.288,0.516-0.402,0.784
			c-0.228,0.537-0.394,1.081-0.53,1.603c-0.135,0.522-0.239,1.022-0.321,1.487c-0.164,0.929-0.247,1.713-0.284,2.261
			c-0.019,0.274-0.053,1.415-0.056,1.266c-0.003-0.15-0.088-0.996-0.075-1.273c0.027-0.554,0.095-1.343,0.243-2.282
			c0.074-0.469,0.169-0.976,0.296-1.507c0.128-0.53,0.286-1.086,0.51-1.644c0.113-0.278,0.346-0.787,0.676-1.217
			c0.101-0.125,0.62-0.684,1.248-0.766c0.552-0.042,0.862,0.012,1.022,0.088c0.16,0.076,0.36,0.174,0.483,0.295
			c0.23,0.256,0.526,0.281,0.914,2.201c0.062,0.304,0.109,0.606,0.146,0.903c0.074,0.595,0.11,1.172,0.128,1.719
			c0.018,0.547,0.017,1.064,0.006,1.54c-0.022,0.953-0.08,1.746-0.133,2.301c-0.027,0.278-0.121,0.929-0.143,1.081
			C149.391,150.825,148.951,150.399,148.951,150.399z"/>
	</g>
	<g>
		<path fill="#0F9BD8" d="M144.113,149.311l-0.499,0.03c0,0-0.005-0.084-0.014-0.242c-0.01-0.158-0.026-0.39-0.053-0.685
			c-0.054-0.589-0.145-1.433-0.339-2.427c-0.098-0.496-0.223-1.031-0.397-1.58c-0.087-0.275-0.188-0.552-0.306-0.828
			c-0.119-0.275-0.257-0.548-0.424-0.804c-0.167-0.255-0.364-0.496-0.602-0.682c-0.238-0.185-0.523-0.315-0.827-0.373
			c-0.304-0.059-0.626-0.048-0.935,0.028c-0.309,0.077-0.604,0.217-0.858,0.411c-0.127,0.097-0.734,0.412-0.914,1.644
			c-0.116,0.992,0.13,3.184,0.17,3.774c0.01,0.148,0.166,2.629,0.199,3.044c0.033,0.415,0.059,0.778,0.074,1.077
			c0.014,0.3,0.023,0.534,0.019,0.698c-0.002,0.082-0.011,0.293-0.089,0.385c-0.033,0.047-0.117,0.054-0.128,0.045
			c-0.011-0.009-0.008-0.033,0.007-0.068c0.015-0.035,0.138-0.113,0.059-1.052c-0.02-0.297-0.052-0.658-0.092-1.072
			c-0.04-0.414-0.398-4.233-0.468-4.873c-0.035-0.32-0.063-0.648-0.072-0.982c-0.008-0.334,0.001-0.676,0.052-1.019
			c0.027-0.171,0.06-0.344,0.112-0.513c0.051-0.169,0.117-0.336,0.199-0.497c0,0,0.44-0.994,1.648-1.318
			c0.35-0.093,0.72-0.113,1.078-0.051c0.357,0.061,0.698,0.209,0.984,0.424c0.286,0.216,0.51,0.483,0.698,0.759
			c0.188,0.277,0.339,0.566,0.47,0.854c0.13,0.288,0.24,0.576,0.336,0.86c0.191,0.567,0.328,1.113,0.437,1.619
			c0.216,1.014,0.324,1.869,0.389,2.468c0.032,0.3,0.053,0.536,0.066,0.697C144.107,149.225,144.113,149.311,144.113,149.311z"/>
	</g>
	<g>
		<path fill="#0F9BD8" d="M140.679,150.226c0.141-0.145,0.383-0.311,0.703-0.47c0.32-0.158,0.716-0.314,1.172-0.437
			c0.114-0.03,0.667-0.125,0.73-0.133c0.252-0.03,0.514-0.06,0.783-0.077c0.134-0.011,0.941-0.025,1.674,0.012
			c0.829,0.117,1.503,0.29,1.784,0.391c0.563,0.2,1.071,0.477,1.498,0.775c0.427,0.3,0.775,0.619,1.047,0.903
			c0.272,0.284,0.47,0.533,0.607,0.701c0.255,0.331,0.212,0.396-0.05,0.067c-0.15-0.177-0.359-0.412-0.636-0.667
			c-0.276-0.255-0.619-0.53-1.026-0.787c-1.294-0.76-2.485-0.967-3.068-1.033c-0.541-0.064-1.098-0.084-1.64-0.075
			c-1.228,0.003-3.148,0.565-3.534,0.901c-0.138,0.14-0.195,0.214-0.217,0.202C140.502,150.497,140.498,150.446,140.679,150.226z"/>
	</g>
	<path opacity="0.1" fill="#103554" d="M148.083,151.069c0.54,0.003,1.013,0.289,1.463,0.556c0.332,0.197,0.619,0.448,0.878,0.728
		c0.5,0.441,0.917,0.988,1.19,1.59c0.35,0.772,0.386,2.473-0.927,2.185c-0.932-0.204-0.873-1.615-1.243-2.261
		c-0.257-0.447-0.607-0.747-1.005-1.079c-0.328-0.274-0.733-0.47-0.975-0.824C147.09,151.422,147.489,151.066,148.083,151.069z"/>
	<path opacity="0.1" fill="#103554" d="M153.966,146.837c0.036-0.557-0.099-0.972-0.21-1.512c-0.175-0.844,0.35-1.366,1.026-0.676
		c0.012,0.012,0.023,0.024,0.034,0.036l-0.005-0.04c0.649,0.502,0.565,1.687,0.479,2.407c-0.061,0.509-0.229,1.214-0.623,1.572
		c-0.334,0.303-0.644,0.256-0.745-0.197C153.804,147.905,153.932,147.36,153.966,146.837z"/>
	<path opacity="0.1" fill="#103554" d="M147.064,142.006c0.109-1.108,1.156-0.652,1.463,0.14c0.083,0.213,0.111,0.469,0.104,0.709
		c0.072,0.391,0.101,0.759,0.111,0.922c0.024,0.402,0.085,1.151-0.36,1.386c-0.418,0.221-0.569-0.415-0.613-0.712
		c-0.075-0.511-0.134-0.991-0.356-1.468C147.26,142.654,147.025,142.397,147.064,142.006z"/>
	<path opacity="0.1" fill="#103554" d="M140.042,142.143c0.923-0.165,1.507,0.409,1.837,1.147c0.188,0.302,0.326,0.627,0.407,0.896
		c0.132,0.436,0.266,1.127-0.088,1.495c-0.298,0.31-0.666,0.139-0.878-0.178c-0.282-0.42-0.353-0.963-0.674-1.368
		c-0.253-0.319-0.671-0.425-0.995-0.648C138.926,142.989,139.298,142.276,140.042,142.143z"/>
</g>
</svg>
